<?xml version="1.0" standalone="no"?>
 <!DOCTYPE svg PUBLIC "-//W3C//DTD SVG 1.1//EN" 
 "http://www.w3.org/Graphics/SVG/1.1/DTD/svg11.dtd"> 
<svg
  xmlns:svg="http://www.w3.org/2000/svg"
  xmlns="http://www.w3.org/2000/svg"
  xmlns:xlink="http://www.w3.org/1999/xlink"
  version="1.1"
  width="5.245100cm" height="5.664200cm" viewBox="0 0 20650 22300">
<title>SVG Picture created as tigard-F_CrtYd.svg date 2020/12/19 17:05:24 </title>
  <desc>Picture generated by PCBNEW </desc>
<g style="fill:#000000; fill-opacity:1;stroke:#000000; stroke-opacity:1;
stroke-linecap:round; stroke-linejoin:round;"
 transform="translate(0 0) scale(1 1)">
</g>
<g style="fill:#000000; fill-opacity:0.0; 
stroke:#000000; stroke-width:-0.000393701; stroke-opacity:1; 
stroke-linecap:round; stroke-linejoin:round;">
</g>
<g style="fill:#C2C2C2; fill-opacity:0.0; 
stroke:#C2C2C2; stroke-width:-0.000393701; stroke-opacity:1; 
stroke-linecap:round; stroke-linejoin:round;">
</g>
<g style="fill:#C2C2C2; fill-opacity:0.0; 
stroke:#C2C2C2; stroke-width:19.685; stroke-opacity:1; 
stroke-linecap:round; stroke-linejoin:round;">
<circle cx="2896.65" cy="4519.29" r="1279.53" /> 
<path d="M9589 12466
L9589 11048
" />
<path d="M9589 11048
L8093 11048
" />
<path d="M8093 11048
L8093 12466
" />
<path d="M8093 12466
L9589 12466
" />
<path d="M19856 9548
L18439 9548
" />
<path d="M19856 18958
L19856 9548
" />
<path d="M18439 18958
L19856 18958
" />
<path d="M18439 9548
L18439 18958
" />
<path d="M16873 18676
L12463 18676
" />
<path d="M12463 18676
L12463 21098
" />
<path d="M12463 21098
L16873 21098
" />
<path d="M16873 21098
L16873 18676
" />
<path d="M19857 6338
L16471 6338
" />
<path d="M19857 9251
L19857 6338
" />
<path d="M16471 9251
L19857 9251
" />
<path d="M16471 6338
L16471 9251
" />
<path d="M11497 21468
L11497 18082
" />
<path d="M7599 21468
L11497 21468
" />
<path d="M7599 18082
L7599 21468
" />
<path d="M11497 18082
L7599 18082
" />
<path d="M11833 16940
L11833 15306
" />
<path d="M11262 16940
L11833 16940
" />
<path d="M11262 17373
L11262 16940
" />
<path d="M10829 17373
L11262 17373
" />
<path d="M10829 17944
L10829 17373
" />
<path d="M9195 17944
L10829 17944
" />
<path d="M6558 16940
L6558 15306
" />
<path d="M7128 16940
L6558 16940
" />
<path d="M7128 17373
L7128 16940
" />
<path d="M7562 17373
L7128 17373
" />
<path d="M7562 17944
L7562 17373
" />
<path d="M9195 17944
L7562 17944
" />
<path d="M11833 13672
L11833 15306
" />
<path d="M11262 13672
L11833 13672
" />
<path d="M11262 13239
L11262 13672
" />
<path d="M10829 13239
L11262 13239
" />
<path d="M10829 12668
L10829 13239
" />
<path d="M9195 12668
L10829 12668
" />
<path d="M6558 13672
L6558 15306
" />
<path d="M7128 13672
L6558 13672
" />
<path d="M7128 13239
L7128 13672
" />
<path d="M7562 13239
L7128 13239
" />
<path d="M7562 12668
L7562 13239
" />
<path d="M9195 12668
L7562 12668
" />
<path d="M4380 17401
L672 17401
" />
<path d="M4380 13212
L672 13212
" />
<path d="M672 13212
L672 17401
" />
<path d="M4380 13212
L4380 17401
" />
<path d="M7296 9516
L5800 9516
" />
<path d="M5800 9516
L5800 8098
" />
<path d="M5800 8098
L7296 8098
" />
<path d="M7296 8098
L7296 9516
" />
<path d="M7313 9748
L7313 11166
" />
<path d="M5817 9748
L7313 9748
" />
<path d="M5817 11166
L5817 9748
" />
<path d="M7313 11166
L5817 11166
" />
<path d="M4938 11048
L4938 10316
" />
<path d="M5308 11048
L4938 11048
" />
<path d="M5308 10316
L5308 11048
" />
<path d="M4938 10316
L5308 10316
" />
<path d="M4883 9330
L4883 10062
" />
<path d="M4513 9330
L4883 9330
" />
<path d="M4513 10062
L4513 9330
" />
<path d="M4883 10062
L4513 10062
" />
<path d="M4883 10306
L4883 11038
" />
<path d="M4513 10306
L4883 10306
" />
<path d="M4513 11038
L4513 10306
" />
<path d="M4883 11038
L4513 11038
" />
<path d="M4239 5798
L4239 7216
" />
<path d="M6660 5798
L4239 5798
" />
<path d="M6660 7216
L6660 5798
" />
<path d="M4239 7216
L6660 7216
" />
<path d="M13909 9916
L13909 13183
" />
<path d="M13909 13183
L16940 13183
" />
<path d="M16940 13183
L16940 9916
" />
<path d="M16940 9916
L13909 9916
" />
<path d="M4215 19494
L4215 22076
" />
<path d="M4215 22076
L7286 22076
" />
<path d="M7286 22076
L7286 19494
" />
<path d="M7286 19494
L4215 19494
" />
<circle cx="5498.23" cy="4057.48" r="649.606" /> 
<path d="M12278 5680
L16018 5680
" />
<path d="M16018 5680
L16018 7727
" />
<path d="M16018 7727
L12278 7727
" />
<path d="M12278 5680
L12278 7727
" />
<path d="M7439 3348
L7439 4766
" />
<path d="M16849 3348
L7439 3348
" />
<path d="M16849 4766
L16849 3348
" />
<path d="M7439 4766
L16849 4766
" />
<path d="M4176 12550
L4176 6251
" />
<path d="M1912 12550
L4176 12550
" />
<path d="M1912 6251
L1912 12550
" />
<path d="M4176 6251
L1912 6251
" />
<path d="M16913 13869
L13882 13869
" />
<path d="M16913 17137
L16913 13869
" />
<path d="M13882 17137
L16913 17137
" />
<path d="M13882 13869
L13882 17137
" />
<path d="M12954 15515
L13741 15515
" />
<path d="M12954 15515
L12954 16499
" />
<path d="M13741 16499
L13741 15515
" />
<path d="M13741 16499
L12954 16499
" />
<path d="M12633 12691
L12633 13423
" />
<path d="M12263 12691
L12633 12691
" />
<path d="M12263 13423
L12263 12691
" />
<path d="M12633 13423
L12263 13423
" />
<path d="M7707 10314
L7707 11046
" />
<path d="M7337 10314
L7707 10314
" />
<path d="M7337 11046
L7337 10314
" />
<path d="M7707 11046
L7337 11046
" />
<path d="M5739 11046
L5369 11046
" />
<path d="M5369 11046
L5369 10314
" />
<path d="M5369 10314
L5739 10314
" />
<path d="M5739 10314
L5739 11046
" />
<path d="M7707 8641
L7707 9373
" />
<path d="M7337 8641
L7707 8641
" />
<path d="M7337 9373
L7337 8641
" />
<path d="M7707 9373
L7337 9373
" />
<path d="M5739 8635
L5739 9367
" />
<path d="M5369 8635
L5739 8635
" />
<path d="M5369 9367
L5369 8635
" />
<path d="M5739 9367
L5369 9367
" />
<path d="M5576 14137
L6308 14137
" />
<path d="M5576 14507
L5576 14137
" />
<path d="M6308 14507
L5576 14507
" />
<path d="M6308 14137
L6308 14507
" />
<path d="M6308 13743
L6308 14113
" />
<path d="M6308 14113
L5576 14113
" />
<path d="M5576 14113
L5576 13743
" />
<path d="M5576 13743
L6308 13743
" />
<path d="M6308 15712
L6308 16082
" />
<path d="M6308 16082
L5576 16082
" />
<path d="M5576 16082
L5576 15712
" />
<path d="M5576 15712
L6308 15712
" />
<path d="M6308 15318
L6308 15688
" />
<path d="M6308 15688
L5576 15688
" />
<path d="M5576 15688
L5576 15318
" />
<path d="M5576 15318
L6308 15318
" />
<path d="M11346 12515
L10976 12515
" />
<path d="M10976 12515
L10976 11783
" />
<path d="M10976 11783
L11346 11783
" />
<path d="M11346 11783
L11346 12515
" />
<path d="M10950 11783
L10950 12515
" />
<path d="M10580 11783
L10950 11783
" />
<path d="M10580 12515
L10580 11783
" />
<path d="M10950 12515
L10580 12515
" />
<path d="M5576 16499
L6308 16499
" />
<path d="M5576 16869
L5576 16499
" />
<path d="M6308 16869
L5576 16869
" />
<path d="M6308 16499
L6308 16869
" />
<path d="M12717 16968
L11985 16968
" />
<path d="M12717 16598
L12717 16968
" />
<path d="M11985 16598
L12717 16598
" />
<path d="M11985 16968
L11985 16598
" />
<path d="M7609 12473
L7239 12473
" />
<path d="M7239 12473
L7239 11741
" />
<path d="M7239 11741
L7609 11741
" />
<path d="M7609 11741
L7609 12473
" />
<path d="M6308 17287
L6308 17657
" />
<path d="M6308 17657
L5576 17657
" />
<path d="M5576 17657
L5576 17287
" />
<path d="M5576 17287
L6308 17287
" />
<path d="M11985 17657
L11985 17287
" />
<path d="M11985 17287
L12717 17287
" />
<path d="M12717 17287
L12717 17657
" />
<path d="M12717 17657
L11985 17657
" />
<path d="M10554 12515
L10184 12515
" />
<path d="M10184 12515
L10184 11783
" />
<path d="M10184 11783
L10554 11783
" />
<path d="M10554 11783
L10554 12515
" />
<path d="M7663 12464
L7663 11732
" />
<path d="M8033 12464
L7663 12464
" />
<path d="M8033 11732
L8033 12464
" />
<path d="M7663 11732
L8033 11732
" />
<path d="M14640 9457
L14640 9827
" />
<path d="M14640 9827
L13908 9827
" />
<path d="M13908 9827
L13908 9457
" />
<path d="M13908 9457
L14640 9457
" />
<path d="M13881 13807
L13881 13437
" />
<path d="M13881 13437
L14613 13437
" />
<path d="M14613 13437
L14613 13807
" />
<path d="M14613 13807
L13881 13807
" />
<path d="M16202 9457
L16934 9457
" />
<path d="M16202 9827
L16202 9457
" />
<path d="M16934 9827
L16202 9827
" />
<path d="M16934 9457
L16934 9827
" />
<path d="M16915 13448
L16915 13818
" />
<path d="M16915 13818
L16183 13818
" />
<path d="M16183 13818
L16183 13448
" />
<path d="M16183 13448
L16915 13448
" />
<path d="M6898 11381
L6898 11751
" />
<path d="M6898 11751
L6166 11751
" />
<path d="M6166 11751
L6166 11381
" />
<path d="M6166 11381
L6898 11381
" />
<path d="M5443 13009
L5073 13009
" />
<path d="M5073 13009
L5073 12277
" />
<path d="M5073 12277
L5443 12277
" />
<path d="M5443 12277
L5443 13009
" />
<path d="M8876 9677
L8876 8512
" />
<path d="M9451 9677
L8876 9677
" />
<path d="M9451 8512
L9451 9677
" />
<path d="M8876 8512
L9451 8512
" />
<path d="M10876 8512
L11451 8512
" />
<path d="M11451 8512
L11451 9677
" />
<path d="M11451 9677
L10876 9677
" />
<path d="M10876 9677
L10876 8512
" />
<path d="M10876 7277
L10876 6112
" />
<path d="M11451 7277
L10876 7277
" />
<path d="M11451 6112
L11451 7277
" />
<path d="M10876 6112
L11451 6112
" />
<path d="M9876 6112
L10451 6112
" />
<path d="M10451 6112
L10451 7277
" />
<path d="M10451 7277
L9876 7277
" />
<path d="M9876 7277
L9876 6112
" />
<path d="M9876 8512
L10451 8512
" />
<path d="M10451 8512
L10451 9677
" />
<path d="M10451 9677
L9876 9677
" />
<path d="M9876 9677
L9876 8512
" />
<path d="M6308 13720
L5576 13720
" />
<path d="M6308 13350
L6308 13720
" />
<path d="M5576 13350
L6308 13350
" />
<path d="M5576 13720
L5576 13350
" />
<path d="M5576 16475
L5576 16105
" />
<path d="M5576 16105
L6308 16105
" />
<path d="M6308 16105
L6308 16475
" />
<path d="M6308 16475
L5576 16475
" />
<path d="M4763 14256
L5133 14256
" />
<path d="M5133 14256
L5133 14988
" />
<path d="M5133 14988
L4763 14988
" />
<path d="M4763 14988
L4763 14256
" />
<path d="M4763 16553
L4763 15821
" />
<path d="M5133 16553
L4763 16553
" />
<path d="M5133 15821
L5133 16553
" />
<path d="M4763 15821
L5133 15821
" />
<path d="M9539 9809
L9539 10179
" />
<path d="M9539 10179
L8807 10179
" />
<path d="M8807 10179
L8807 9809
" />
<path d="M8807 9809
L9539 9809
" />
<path d="M10798 9809
L11530 9809
" />
<path d="M10798 10179
L10798 9809
" />
<path d="M11530 10179
L10798 10179
" />
<path d="M11530 9809
L11530 10179
" />
<path d="M5576 14901
L5576 14531
" />
<path d="M5576 14531
L6308 14531
" />
<path d="M6308 14531
L6308 14901
" />
<path d="M6308 14901
L5576 14901
" />
<path d="M6308 17263
L5576 17263
" />
<path d="M6308 16893
L6308 17263
" />
<path d="M5576 16893
L6308 16893
" />
<path d="M5576 17263
L5576 16893
" />
<path d="M10807 7779
L10807 7409
" />
<path d="M10807 7409
L11539 7409
" />
<path d="M11539 7409
L11539 7779
" />
<path d="M11539 7779
L10807 7779
" />
<path d="M10530 7779
L9798 7779
" />
<path d="M10530 7409
L10530 7779
" />
<path d="M9798 7409
L10530 7409
" />
<path d="M9798 7779
L9798 7409
" />
<path d="M18001 10200
L18001 10570
" />
<path d="M18001 10570
L17269 10570
" />
<path d="M17269 10570
L17269 10200
" />
<path d="M17269 10200
L18001 10200
" />
<path d="M10530 10179
L9798 10179
" />
<path d="M10530 9809
L10530 10179
" />
<path d="M9798 9809
L10530 9809
" />
<path d="M9798 10179
L9798 9809
" />
<path d="M7241 11592
L7241 11222
" />
<path d="M7241 11222
L7973 11222
" />
<path d="M7973 11222
L7973 11592
" />
<path d="M7973 11592
L7241 11592
" />
<path d="M9788 11783
L10158 11783
" />
<path d="M10158 11783
L10158 12515
" />
<path d="M10158 12515
L9788 12515
" />
<path d="M9788 12515
L9788 11783
" />
<path d="M8714 10192
L7982 10192
" />
<path d="M8714 9822
L8714 10192
" />
<path d="M7982 9822
L8714 9822
" />
<path d="M7982 10192
L7982 9822
" />
<path d="M8715 10767
L7983 10767
" />
<path d="M8715 10397
L8715 10767
" />
<path d="M7983 10397
L8715 10397
" />
<path d="M7983 10767
L7983 10397
" />
<path d="M15799 9227
L15067 9227
" />
<path d="M15799 8857
L15799 9227
" />
<path d="M15067 8857
L15799 8857
" />
<path d="M15067 9227
L15067 8857
" />
<path d="M15804 9457
L15804 9827
" />
<path d="M15804 9827
L15072 9827
" />
<path d="M15072 9827
L15072 9457
" />
<path d="M15072 9457
L15804 9457
" />
<path d="M13714 14242
L12982 14242
" />
<path d="M13714 13872
L13714 14242
" />
<path d="M12982 13872
L13714 13872
" />
<path d="M12982 14242
L12982 13872
" />
<path d="M13026 10032
L13758 10032
" />
<path d="M13026 10402
L13026 10032
" />
<path d="M13758 10402
L13026 10402
" />
<path d="M13758 10032
L13758 10402
" />
<path d="M11963 20188
L11963 19456
" />
<path d="M12333 20188
L11963 20188
" />
<path d="M12333 19456
L12333 20188
" />
<path d="M11963 19456
L12333 19456
" />
<path d="M12333 18477
L12333 19210
" />
<path d="M11963 18477
L12333 18477
" />
<path d="M11963 19210
L11963 18477
" />
<path d="M12333 19210
L11963 19210
" />
<path d="M13791 11546
L13004 11546
" />
<path d="M13791 11546
L13791 10562
" />
<path d="M13004 10562
L13004 11546
" />
<path d="M13004 10562
L13791 10562
" />
<path d="M13791 12570
L13004 12570
" />
<path d="M13791 12570
L13791 11586
" />
<path d="M13004 11586
L13004 12570
" />
<path d="M13004 11586
L13791 11586
" />
<path d="M18023 11802
L17235 11802
" />
<path d="M18023 11802
L18023 10818
" />
<path d="M17235 10818
L17235 11802
" />
<path d="M17235 10818
L18023 10818
" />
<path d="M18023 12826
L17235 12826
" />
<path d="M18023 12826
L18023 11842
" />
<path d="M17235 11842
L17235 12826
" />
<path d="M17235 11842
L18023 11842
" />
<path d="M12954 14499
L13741 14499
" />
<path d="M12954 14499
L12954 15483
" />
<path d="M13741 15483
L13741 14499
" />
<path d="M13741 15483
L12954 15483
" />
<path d="M18023 15739
L17235 15739
" />
<path d="M18023 15739
L18023 14755
" />
<path d="M17235 14755
L17235 15739
" />
<path d="M17235 14755
L18023 14755
" />
<path d="M17235 15779
L18023 15779
" />
<path d="M17235 15779
L17235 16763
" />
<path d="M18023 16763
L18023 15779
" />
<path d="M18023 16763
L17235 16763
" />
<path d="M9983 11645
L9983 10306
" />
<path d="M9983 10306
L11361 10306
" />
<path d="M11361 10306
L11361 11645
" />
<path d="M11361 11645
L9983 11645
" />
<path d="M5514 13161
L7168 13161
" />
<path d="M5514 11822
L5514 13161
" />
<path d="M7168 11822
L5514 11822
" />
<path d="M7168 13161
L7168 11822
" />
<path d="M2339 18172
L3071 18172
" />
<path d="M2339 18542
L2339 18172
" />
<path d="M3071 18542
L2339 18542
" />
<path d="M3071 18172
L3071 18542
" />
<path d="M5163 13332
L5533 13332
" />
<path d="M5533 13332
L5533 14064
" />
<path d="M5533 14064
L5163 14064
" />
<path d="M5163 14064
L5163 13332
" />
<path d="M4763 14064
L4763 13332
" />
<path d="M5133 14064
L4763 14064
" />
<path d="M5133 13332
L5133 14064
" />
<path d="M4763 13332
L5133 13332
" />
<path d="M2333 17680
L3065 17680
" />
<path d="M2333 18050
L2333 17680
" />
<path d="M3065 18050
L2333 18050
" />
<path d="M3065 17680
L3065 18050
" />
<path d="M9498 10281
L9868 10281
" />
<path d="M9868 10281
L9868 11013
" />
<path d="M9868 11013
L9498 11013
" />
<path d="M9498 11013
L9498 10281
" />
<circle cx="18644.7" cy="4519.29" r="1220.47" /> 
<circle cx="2896.65" cy="20267.3" r="1220.47" /> 
<circle cx="18644.7" cy="20267.3" r="1220.47" /> 
<path d="M11743 11783
L11743 12515
" />
<path d="M11373 11783
L11743 11783
" />
<path d="M11373 12515
L11373 11783
" />
<path d="M11743 12515
L11373 12515
" />
<g >
</g>
<g >
</g>
<g >
</g>
<g >
</g>
<g >
</g>
<g >
</g>
<g >
</g>
<g >
</g>
<g >
</g>
<g >
</g>
<g >
</g>
<g >
</g>
<g >
</g>
<g >
</g>
<g >
</g>
<g >
</g>
<g >
</g>
<g >
</g>
<g >
</g>
<g >
</g>
<g >
</g>
<g >
</g>
<g >
</g>
<g >
</g>
<g >
</g>
<g >
</g>
<g >
</g>
<g >
</g>
<g >
</g>
<g >
</g>
<g >
</g>
<g >
</g>
<g >
</g>
<g >
</g>
<g >
</g>
<g >
</g>
<g >
</g>
<g >
</g>
<g >
</g>
<g >
</g>
<g >
</g>
<g >
</g>
<g >
</g>
<g >
</g>
<g >
</g>
<g >
</g>
<g >
</g>
<g >
</g>
<g >
</g>
<g >
</g>
<g >
</g>
<g >
</g>
<g >
</g>
<g >
</g>
<g >
</g>
<g >
</g>
<g >
</g>
<g >
</g>
<g >
</g>
<g >
</g>
<g >
</g>
<g >
</g>
<g >
</g>
<g >
</g>
<g >
</g>
<g >
</g>
<g >
</g>
<g >
</g>
<g >
</g>
<g >
</g>
<g >
</g>
<g >
</g>
<g >
</g>
<g >
</g>
<g >
</g>
<g >
</g>
<g >
</g>
<g >
</g>
<g >
</g>
<g >
</g>
<g >
</g>
<g >
</g>
<g >
</g>
<g >
</g>
<g >
</g>
<g >
</g>
<g >
</g>
<g >
</g>
<g >
</g>
<g >
</g>
<g >
</g>
<g >
</g>
<g >
</g>
<g >
</g>
<g >
</g>
<g >
</g>
<g >
</g>
</g>
<g style="fill:#000000; fill-opacity:0.0; 
stroke:#000000; stroke-width:19.685; stroke-opacity:1; 
stroke-linecap:round; stroke-linejoin:round;">
</g>
<g style="fill:#C2C200; fill-opacity:0.0; 
stroke:#C2C200; stroke-width:19.685; stroke-opacity:1; 
stroke-linecap:round; stroke-linejoin:round;">
<path d="M2896.65 2747.64 A1771.65 1771.65 0.0 0 0 1125 4519.29" />
<path d="M20416.3 4519.29 A1771.65 1771.65 0.0 0 0 18644.7 2747.64" />
<path d="M18644.7 22039 A1771.65 1771.65 0.0 0 0 20416.3 20267.3" />
<path d="M1125 20267.3 A1771.65 1771.65 0.0 0 0 2896.65 22039" />
<path d="M1125 20267
L1125 4519
" />
<path d="M18644 22038
L2896 22038
" />
<path d="M20416 4519
L20416 20267
" />
<path d="M2896 2747
L18644 2747
" />
<g >
</g>
<g >
</g>
<g >
</g>
<g >
</g>
<g >
</g>
<g >
</g>
<g >
</g>
<g >
</g>
<g >
</g>
<g >
</g>
<g >
</g>
<g >
</g>
<g >
</g>
<g >
</g>
<g >
</g>
<g >
</g>
<g >
</g>
<g >
</g>
<g >
</g>
<g >
</g>
<g >
</g>
<g >
</g>
<g >
</g>
<g >
</g>
<g >
</g>
<g >
</g>
<g >
</g>
<g >
</g>
<g >
</g>
<g >
</g>
<g >
</g>
<g >
</g>
<g >
</g>
<g >
</g>
<g >
</g>
<g >
</g>
<g >
</g>
<g >
</g>
<g >
</g>
<g >
</g>
<g >
</g>
<g >
</g>
<g >
</g>
<g >
</g>
<g >
</g>
<g >
</g>
<g >
</g>
<g >
</g>
<g >
</g>
<g >
</g>
<g >
</g>
<g >
</g>
<g >
</g>
<g >
</g>
<g >
</g>
<g >
</g>
<g >
</g>
<g >
</g>
<g >
</g>
<g >
</g>
<g >
</g>
<g >
</g>
<g >
</g>
<g >
</g>
<g >
</g>
<g >
</g>
<g >
</g>
<g >
</g>
<g >
</g>
<g >
</g>
<g >
</g>
<g >
</g>
<g >
</g>
<g >
</g>
<g >
</g>
<g >
</g>
<g >
</g>
<g >
</g>
<g >
</g>
<g >
</g>
<g >
</g>
<g >
</g>
<g >
</g>
<g >
</g>
<g >
</g>
<g >
</g>
<g >
</g>
<g >
</g>
<g >
</g>
<g >
</g>
<g >
</g>
<g >
</g>
<g >
</g>
<g >
</g>
<g >
</g>
<g >
</g>
<g >
</g>
</g> 
</svg>
