<?xml version="1.0" standalone="no"?>
 <!DOCTYPE svg PUBLIC "-//W3C//DTD SVG 1.1//EN" 
 "http://www.w3.org/Graphics/SVG/1.1/DTD/svg11.dtd"> 
<svg
  xmlns:svg="http://www.w3.org/2000/svg"
  xmlns="http://www.w3.org/2000/svg"
  xmlns:xlink="http://www.w3.org/1999/xlink"
  version="1.1"
  width="5.245100cm" height="5.664200cm" viewBox="0 0 20650 22300">
<title>SVG Picture created as tigard-F_SilkS.svg date 2020/12/19 17:05:24 </title>
  <desc>Picture generated by PCBNEW </desc>
<g style="fill:#000000; fill-opacity:1;stroke:#000000; stroke-opacity:1;
stroke-linecap:round; stroke-linejoin:round;"
 transform="translate(0 0) scale(1 1)">
</g>
<g style="fill:#000000; fill-opacity:0.0; 
stroke:#000000; stroke-width:-0.000393701; stroke-opacity:1; 
stroke-linecap:round; stroke-linejoin:round;">
</g>
<g style="fill:#008484; fill-opacity:0.0; 
stroke:#008484; stroke-width:-0.000393701; stroke-opacity:1; 
stroke-linecap:round; stroke-linejoin:round;">
</g>
<g style="fill:#008484; fill-opacity:0.0; 
stroke:#008484; stroke-width:59.0551; stroke-opacity:1; 
stroke-linecap:round; stroke-linejoin:round;">
<path d="M16624 4727
L15374 4727
" />
<path d="M16624 5387
L16624 4727
" />
<path d="M15374 5387
L16624 5387
" />
<path d="M15374 4727
L15374 5387
" />
</g>
<g style="fill:#008484; fill-opacity:0.0; 
stroke:#008484; stroke-width:39.3701; stroke-opacity:1; 
stroke-linecap:round; stroke-linejoin:round;">
</g>
<g style="fill:#008484; fill-opacity:1.0; 
stroke:#008484; stroke-width:39.3701; stroke-opacity:1; 
stroke-linecap:round; stroke-linejoin:round;">
<path style="fill:#008484; fill-opacity:1.0; 
stroke:#008484; stroke-width:39.3701; stroke-opacity:1; 
stroke-linecap:round; stroke-linejoin:round;fill-rule:evenodd;"
d="M 6484.53,7031.1
4434.53,7031.1
4434.53,5967.17
6484.53,5967.17
Z" /> 
</g>
<g style="fill:#008484; fill-opacity:1.0; 
stroke:#008484; stroke-width:59.0551; stroke-opacity:1; 
stroke-linecap:round; stroke-linejoin:round;">
</g>
<g style="fill:#008484; fill-opacity:0.0; 
stroke:#008484; stroke-width:59.0551; stroke-opacity:1; 
stroke-linecap:round; stroke-linejoin:round;">
<path d="M16354 21177
L16174 20437
" />
<path d="M15174 21167
L15144 20447
" />
<path d="M14154 20447
L14034 20997
" />
<path d="M13194 20447
L13124 21237
" />
<path d="M13164 19297
L12994 18667
" />
<path d="M14184 19367
L13884 18317
" />
<path d="M15164 19267
L14774 18697
" />
<path d="M8744 4677
L8754 4677
" />
<path d="M8754 4687
L8744 4677
" />
<path d="M8754 4677
L8754 4687
" />
<path d="M15194 4677
L8754 4677
" />
<path d="M15194 5447
L15194 4677
" />
<path d="M8754 5447
L15194 5447
" />
<path d="M8754 4677
L8754 5447
" />
</g>
<g style="fill:#008484; fill-opacity:0.0; 
stroke:#008484; stroke-width:78.7402; stroke-opacity:1; 
stroke-linecap:round; stroke-linejoin:round;">
<text x="11984.5" y="5274.02"
textLength="6357.24" font-size="524.934" lengthAdjust="spacingAndGlyphs"
text-anchor="middle" opacity="0">TIGARD PROGRAMMER</text>
<path d="M8881 4861
L9106 4861
" />
<path d="M8994 5255
L8994 4861
" />
<path d="M9237 5255
L9237 4861
" />
<path d="M9631 4880
L9594 4861
L9537 4861
L9481 4880
L9444 4917
L9425 4955
L9406 5030
L9406 5086
L9425 5161
L9444 5199
L9481 5236
L9537 5255
L9575 5255
L9631 5236
L9650 5217
L9650 5086
L9575 5086
" />
<path d="M9800 5142
L9987 5142
" />
<path d="M9762 5255
L9894 4861
L10025 5255
" />
<path d="M10381 5255
L10250 5067
" />
<path d="M10156 5255
L10156 4861
L10306 4861
L10344 4880
L10362 4899
L10381 4936
L10381 4992
L10362 5030
L10344 5049
L10306 5067
L10156 5067
" />
<path d="M10550 5255
L10550 4861
L10644 4861
L10700 4880
L10737 4917
L10756 4955
L10775 5030
L10775 5086
L10756 5161
L10737 5199
L10700 5236
L10644 5255
L10550 5255
" />
<path d="M11243 5255
L11243 4861
L11393 4861
L11431 4880
L11450 4899
L11468 4936
L11468 4992
L11450 5030
L11431 5049
L11393 5067
L11243 5067
" />
<path d="M11862 5255
L11731 5067
" />
<path d="M11637 5255
L11637 4861
L11787 4861
L11825 4880
L11843 4899
L11862 4936
L11862 4992
L11843 5030
L11825 5049
L11787 5067
L11637 5067
" />
<path d="M12106 4861
L12181 4861
L12218 4880
L12256 4917
L12275 4992
L12275 5124
L12256 5199
L12218 5236
L12181 5255
L12106 5255
L12068 5236
L12031 5199
L12012 5124
L12012 4992
L12031 4917
L12068 4880
L12106 4861
" />
<path d="M12650 4880
L12612 4861
L12556 4861
L12500 4880
L12462 4917
L12443 4955
L12425 5030
L12425 5086
L12443 5161
L12462 5199
L12500 5236
L12556 5255
L12593 5255
L12650 5236
L12668 5217
L12668 5086
L12593 5086
" />
<path d="M13062 5255
L12931 5067
" />
<path d="M12837 5255
L12837 4861
L12987 4861
L13025 4880
L13043 4899
L13062 4936
L13062 4992
L13043 5030
L13025 5049
L12987 5067
L12837 5067
" />
<path d="M13212 5142
L13399 5142
" />
<path d="M13175 5255
L13306 4861
L13437 5255
" />
<path d="M13568 5255
L13568 4861
L13699 5142
L13831 4861
L13831 5255
" />
<path d="M14018 5255
L14018 4861
L14149 5142
L14281 4861
L14281 5255
" />
<path d="M14468 5049
L14599 5049
" />
<path d="M14656 5255
L14468 5255
L14468 4861
L14656 4861
" />
<path d="M15049 5255
L14918 5067
" />
<path d="M14824 5255
L14824 4861
L14974 4861
L15012 4880
L15031 4899
L15049 4936
L15049 4992
L15031 5030
L15012 5049
L14974 5067
L14824 5067
" />
</g>
<g style="fill:#008484; fill-opacity:0.0; 
stroke:#008484; stroke-width:39.3701; stroke-opacity:1; 
stroke-linecap:round; stroke-linejoin:round;">
</g>
<g style="fill:#008484; fill-opacity:1.0; 
stroke:#008484; stroke-width:39.3701; stroke-opacity:1; 
stroke-linecap:round; stroke-linejoin:round;">
<path style="fill:#008484; fill-opacity:1.0; 
stroke:#008484; stroke-width:39.3701; stroke-opacity:1; 
stroke-linecap:round; stroke-linejoin:round;fill-rule:evenodd;"
d="M 7024.53,21877.2
4484.53,21877.2
4484.53,19727.2
7024.53,19727.2
Z" /> 
</g>
<g style="fill:#008484; fill-opacity:1.0; 
stroke:#008484; stroke-width:59.0551; stroke-opacity:1; 
stroke-linecap:round; stroke-linejoin:round;">
</g>
<g style="fill:#008484; fill-opacity:0.0; 
stroke:#008484; stroke-width:59.0551; stroke-opacity:1; 
stroke-linecap:round; stroke-linejoin:round;">
<path d="M7484 8487
L8534 8487
" />
<path d="M7484 5357
L7484 8487
" />
<path d="M8534 5357
L7484 5357
" />
<path d="M8534 8497
L8534 5357
" />
</g>
<g style="fill:#008484; fill-opacity:0.0; 
stroke:#008484; stroke-width:78.7402; stroke-opacity:1; 
stroke-linecap:round; stroke-linejoin:round;">
<g transform="rotate(-270 7974.53 6977.17)">
<text x="7974.53" y="7174.02"
textLength="2858.27" font-size="524.934" lengthAdjust="spacingAndGlyphs"
text-anchor="middle" opacity="0">Eduino.IO</text>
</g>
<path d="M8002 5692
L8002 5824
" />
<path d="M7796 5880
L7796 5692
L8190 5692
L8190 5880
" />
<path d="M7796 6217
L8190 6217
" />
<path d="M7815 6217
L7796 6180
L7796 6105
L7815 6067
L7833 6049
L7871 6030
L7983 6030
L8021 6049
L8040 6067
L8058 6105
L8058 6180
L8040 6217
" />
<path d="M8058 6574
L7796 6574
" />
<path d="M8058 6405
L7852 6405
L7815 6424
L7796 6461
L7796 6517
L7815 6555
L7833 6574
" />
<path d="M7796 6761
L8058 6761
" />
<path d="M8190 6761
L8171 6742
L8152 6761
L8171 6780
L8190 6761
L8152 6761
" />
<path d="M8058 6949
L7796 6949
" />
<path d="M8021 6949
L8040 6967
L8058 7005
L8058 7061
L8040 7099
L8002 7117
L7796 7117
" />
<path d="M7796 7361
L7815 7323
L7833 7305
L7871 7286
L7983 7286
L8021 7305
L8040 7323
L8058 7361
L8058 7417
L8040 7455
L8021 7473
L7983 7492
L7871 7492
L7833 7473
L7815 7455
L7796 7417
L7796 7361
" />
<path d="M7833 7661
L7815 7680
L7796 7661
L7815 7642
L7833 7661
L7796 7661
" />
<path d="M7796 7848
L8190 7848
" />
<path d="M8190 8111
L8190 8186
L8171 8223
L8133 8261
L8058 8280
L7927 8280
L7852 8261
L7815 8223
L7796 8186
L7796 8111
L7815 8073
L7852 8036
L7927 8017
L8058 8017
L8133 8036
L8171 8073
L8190 8111
" />
</g>
<g style="fill:#008484; fill-opacity:0.0; 
stroke:#008484; stroke-width:39.3701; stroke-opacity:1; 
stroke-linecap:round; stroke-linejoin:round;">
</g>
<g style="fill:#008484; fill-opacity:1.0; 
stroke:#008484; stroke-width:39.3701; stroke-opacity:1; 
stroke-linecap:round; stroke-linejoin:round;">
<path style="fill:#008484; fill-opacity:1.0; 
stroke:#008484; stroke-width:39.3701; stroke-opacity:1; 
stroke-linecap:round; stroke-linejoin:round;fill-rule:evenodd;"
d="M 17727.8,12807.2
17530.9,12807.2
17530.9,11869.7
17727.8,11869.7
Z" /> 
<path style="fill:#008484; fill-opacity:1.0; 
stroke:#008484; stroke-width:39.3701; stroke-opacity:1; 
stroke-linecap:round; stroke-linejoin:round;fill-rule:evenodd;"
d="M 17727.8,11777.2
17524.5,11777.2
17524.5,10847.2
17727.8,10847.2
Z" /> 
<path style="fill:#008484; fill-opacity:1.0; 
stroke:#008484; stroke-width:39.3701; stroke-opacity:1; 
stroke-linecap:round; stroke-linejoin:round;fill-rule:evenodd;"
d="M 13496.7,11519.3
13299.8,11519.3
13299.8,10587.2
13496.7,10587.2
Z" /> 
<path style="fill:#008484; fill-opacity:1.0; 
stroke:#008484; stroke-width:39.3701; stroke-opacity:1; 
stroke-linecap:round; stroke-linejoin:round;fill-rule:evenodd;"
d="M 13504.5,12542.9
13294.5,12542.9
13294.5,11617.2
13504.5,11617.2
Z" /> 
</g>
<g style="fill:#008484; fill-opacity:1.0; 
stroke:#008484; stroke-width:59.0551; stroke-opacity:1; 
stroke-linecap:round; stroke-linejoin:round;">
</g>
<g style="fill:#008484; fill-opacity:0.0; 
stroke:#008484; stroke-width:59.0551; stroke-opacity:1; 
stroke-linecap:round; stroke-linejoin:round;">
<path d="M4244 3787
L4144 3837
" />
<path d="M4194 3797
L4244 3787
" />
<path d="M4154 3757
L4194 3797
" />
<path d="M4134 3707
L4154 3757
" />
<path d="M4134 3657
L4134 3707
" />
<path d="M4004 3967
L4134 3657
" />
<path d="M4454 3697
L4004 3967
" />
<path d="M4174 3767
L4454 3697
" />
<path d="M4134 3487
L4174 3767
" />
<path d="M3994 3967
L4134 3487
" />
<path d="M4634 3347
L4984 3217
" />
<path d="M4374 3547
L4634 3347
" />
<path d="M3984 3977
L4374 3547
" />
</g>
<g style="fill:#008484; fill-opacity:0.0; 
stroke:#008484; stroke-width:39.3701; stroke-opacity:1; 
stroke-linecap:round; stroke-linejoin:round;">
</g>
<g style="fill:#008484; fill-opacity:1.0; 
stroke:#008484; stroke-width:39.3701; stroke-opacity:1; 
stroke-linecap:round; stroke-linejoin:round;">
<path style="fill:#008484; fill-opacity:1.0; 
stroke:#008484; stroke-width:39.3701; stroke-opacity:1; 
stroke-linecap:round; stroke-linejoin:round;fill-rule:evenodd;"
d="M 3834.53,12507.2
2274.53,12507.2
2274.53,6347.17
3834.53,6347.17
Z" /> 
</g>
<g style="fill:#008484; fill-opacity:1.0; 
stroke:#008484; stroke-width:59.0551; stroke-opacity:1; 
stroke-linecap:round; stroke-linejoin:round;">
</g>
<g style="fill:#008484; fill-opacity:0.0; 
stroke:#008484; stroke-width:59.0551; stroke-opacity:1; 
stroke-linecap:round; stroke-linejoin:round;">
<path d="M10944 10317
L10944 10667
" />
<path d="M10364 10317
L10944 10317
" />
<path d="M10364 10667
L10364 10317
" />
<path d="M11294 11627
L11294 11177
" />
<path d="M10050 11627
L11294 11627
" />
<path d="M10050 11527
L10050 11627
" />
<path d="M8104 12387
L8604 12387
" />
<path d="M8104 11117
L8104 12387
" />
<path d="M9594 11117
L8104 11117
" />
<path d="M9594 12391
L9594 11117
" />
<path d="M9451 12391
L9594 12391
" />
<path d="M5534 13141
L5534 11847
" />
<path d="M7128 13141
L5534 13141
" />
<path d="M11214 17307
L7194 17307
" />
<path d="M11214 13287
L11214 17307
" />
<path d="M7184 13287
L11214 13287
" />
<path d="M7184 16944
L7184 13287
" />
</g>
<g style="fill:#008484; fill-opacity:0.0; 
stroke:#008484; stroke-width:39.3701; stroke-opacity:1; 
stroke-linecap:round; stroke-linejoin:round;">
</g>
<g style="fill:#008484; fill-opacity:1.0; 
stroke:#008484; stroke-width:39.3701; stroke-opacity:1; 
stroke-linecap:round; stroke-linejoin:round;">
<path style="fill:#008484; fill-opacity:1.0; 
stroke:#008484; stroke-width:39.3701; stroke-opacity:1; 
stroke-linecap:round; stroke-linejoin:round;fill-rule:evenodd;"
d="M 18844.5,9077.17
17494.5,9077.17
17494.5,6877.17
18844.5,6877.17
Z" /> 
<path style="fill:#008484; fill-opacity:1.0; 
stroke:#008484; stroke-width:39.3701; stroke-opacity:1; 
stroke-linecap:round; stroke-linejoin:round;fill-rule:evenodd;"
d="M 17727.8,15712.2
17530.9,15712.2
17530.9,14783.1
17727.8,14783.1
Z" /> 
<path style="fill:#008484; fill-opacity:1.0; 
stroke:#008484; stroke-width:39.3701; stroke-opacity:1; 
stroke-linecap:round; stroke-linejoin:round;fill-rule:evenodd;"
d="M 17727.8,16735.8
17530.9,16735.8
17530.9,15806.7
17727.8,15806.7
Z" /> 
<path style="fill:#008484; fill-opacity:1.0; 
stroke:#008484; stroke-width:39.3701; stroke-opacity:1; 
stroke-linecap:round; stroke-linejoin:round;fill-rule:evenodd;"
d="M 13454.5,15456.3
13244.5,15456.3
13244.5,14517.2
13454.5,14517.2
Z" /> 
<path style="fill:#008484; fill-opacity:1.0; 
stroke:#008484; stroke-width:39.3701; stroke-opacity:1; 
stroke-linecap:round; stroke-linejoin:round;fill-rule:evenodd;"
d="M 13454.5,16472
13249.8,16472
13244.5,15537.2
13454.5,15537.2
Z" /> 
</g>
<g style="fill:#008484; fill-opacity:1.0; 
stroke:#008484; stroke-width:59.0551; stroke-opacity:1; 
stroke-linecap:round; stroke-linejoin:round;">
</g>
<g style="fill:#008484; fill-opacity:0.0; 
stroke:#008484; stroke-width:59.0551; stroke-opacity:1; 
stroke-linecap:round; stroke-linejoin:round;">
<path d="M7274 11077
L6224 11077
" />
<path d="M7274 9817
L7274 11077
" />
<path d="M5804 9817
L7274 9817
" />
<path d="M5804 11077
L5804 9817
" />
<path d="M6214 11077
L5804 11077
" />
<path d="M7264 8167
L5794 8167
" />
<path d="M7264 9437
L7264 8167
" />
<path d="M5804 9437
L7264 9437
" />
<path d="M5804 8147
L5804 9437
" />
</g>
<g style="fill:#008484; fill-opacity:0.0; 
stroke:#008484; stroke-width:39.3701; stroke-opacity:1; 
stroke-linecap:round; stroke-linejoin:round;">
</g>
<g style="fill:#008484; fill-opacity:1.0; 
stroke:#008484; stroke-width:39.3701; stroke-opacity:1; 
stroke-linecap:round; stroke-linejoin:round;">
<path style="fill:#008484; fill-opacity:1.0; 
stroke:#008484; stroke-width:39.3701; stroke-opacity:1; 
stroke-linecap:round; stroke-linejoin:round;fill-rule:evenodd;"
d="M 16884.5,13147.2
14007.9,13147.2
14007.9,9961.42
16884.5,9961.42
Z" /> 
<path style="fill:#008484; fill-opacity:1.0; 
stroke:#008484; stroke-width:39.3701; stroke-opacity:1; 
stroke-linecap:round; stroke-linejoin:round;fill-rule:evenodd;"
d="M 16884.5,17087.2
13974.5,17087.2
13974.5,13897.2
16884.5,13897.2
Z" /> 
<path style="fill:#008484; fill-opacity:1.0; 
stroke:#008484; stroke-width:39.3701; stroke-opacity:1; 
stroke-linecap:round; stroke-linejoin:round;fill-rule:evenodd;"
d="M 15954.5,7531.1
12337.6,7531.1
12337.6,5867.17
15954.5,5867.17
Z" /> 
<path style="fill:#008484; fill-opacity:1.0; 
stroke:#008484; stroke-width:39.3701; stroke-opacity:1; 
stroke-linecap:round; stroke-linejoin:round;fill-rule:evenodd;"
d="M 19684.5,9647.17
19684.5,10757.2
18314.5,10752.2
18314.5,9642.17
Z" /> 
<path style="fill:#008484; fill-opacity:1.0; 
stroke:#008484; stroke-width:39.3701; stroke-opacity:1; 
stroke-linecap:round; stroke-linejoin:round;fill-rule:evenodd;"
d="M 16874.5,18667.2
16874.5,19897.2
15654.5,19907.2
15664.5,18657.2
Z" /> 
<path style="fill:#008484; fill-opacity:1.0; 
stroke:#008484; stroke-width:39.3701; stroke-opacity:1; 
stroke-linecap:round; stroke-linejoin:round;fill-rule:evenodd;"
d="M 11344.5,19157.2
10794.5,19157.2
10794.5,18427.2
11344.5,18427.2
Z" /> 
<path style="fill:#008484; fill-opacity:1.0; 
stroke:#008484; stroke-width:39.3701; stroke-opacity:1; 
stroke-linecap:round; stroke-linejoin:round;fill-rule:evenodd;"
d="M 11304.5,20477.2
7784.53,20477.2
7784.53,19077.2
11304.5,19077.2
Z" /> 
<path style="fill:#008484; fill-opacity:1.0; 
stroke:#008484; stroke-width:39.3701; stroke-opacity:1; 
stroke-linecap:round; stroke-linejoin:round;fill-rule:evenodd;"
d="M 11454.5,7277.17
10875,7277.17
10875,6110.24
11454.5,6110.24
Z" /> 
<path style="fill:#008484; fill-opacity:1.0; 
stroke:#008484; stroke-width:39.3701; stroke-opacity:1; 
stroke-linecap:round; stroke-linejoin:round;fill-rule:evenodd;"
d="M 10454.5,7277.17
9875,7277.17
9875,6110.24
10454.5,6110.24
Z" /> 
</g>
<g style="fill:#008484; fill-opacity:1.0; 
stroke:#008484; stroke-width:59.0551; stroke-opacity:1; 
stroke-linecap:round; stroke-linejoin:round;">
</g>
<g style="fill:#008484; fill-opacity:0.0; 
stroke:#008484; stroke-width:59.0551; stroke-opacity:1; 
stroke-linecap:round; stroke-linejoin:round;">
<path d="M5444 7027
L5454 7017
" />
<path d="M4954 7027
L5444 7027
" />
<path d="M4424 5983
L4424 6537
" />
<path d="M5448 5983
L4424 5983
" />
</g>
<g style="fill:#008484; fill-opacity:0.0; 
stroke:#008484; stroke-width:39.3701; stroke-opacity:1; 
stroke-linecap:round; stroke-linejoin:round;">
</g>
<g style="fill:#008484; fill-opacity:1.0; 
stroke:#008484; stroke-width:39.3701; stroke-opacity:1; 
stroke-linecap:round; stroke-linejoin:round;">
<path style="fill:#008484; fill-opacity:1.0; 
stroke:#008484; stroke-width:39.3701; stroke-opacity:1; 
stroke-linecap:round; stroke-linejoin:round;fill-rule:evenodd;"
d="M 11504.5,9727.17
10904.5,9727.17
10904.5,8527.17
11504.5,8527.17
Z" /> 
<path style="fill:#008484; fill-opacity:1.0; 
stroke:#008484; stroke-width:39.3701; stroke-opacity:1; 
stroke-linecap:round; stroke-linejoin:round;fill-rule:evenodd;"
d="M 10504.5,9727.17
9875,9727.17
9875,8510.24
10504.5,8510.24
Z" /> 
<path style="fill:#008484; fill-opacity:1.0; 
stroke:#008484; stroke-width:39.3701; stroke-opacity:1; 
stroke-linecap:round; stroke-linejoin:round;fill-rule:evenodd;"
d="M 9504.53,9727.17
8875,9727.17
8875,8510.24
9504.53,8510.24
Z" /> 
</g>
<g style="fill:#008484; fill-opacity:0.0; 
stroke:#008484; stroke-width:39.3701; stroke-opacity:1; 
stroke-linecap:round; stroke-linejoin:round;">
</g>
<g style="fill:#008484; fill-opacity:0.0; 
stroke:#008484; stroke-width:59.0551; stroke-opacity:1; 
stroke-linecap:round; stroke-linejoin:round;">
<text x="5544.53" y="5288.9"
textLength="972.254" font-size="419.947" lengthAdjust="spacingAndGlyphs"
text-anchor="middle" opacity="0">2V5</text>
<path d="M5169 4988
L5184 4973
L5214 4958
L5289 4958
L5319 4973
L5334 4988
L5349 5018
L5349 5048
L5334 5093
L5154 5273
L5349 5273
" />
<path d="M5439 4958
L5544 5273
L5649 4958
" />
<path d="M5904 4958
L5754 4958
L5739 5108
L5754 5093
L5784 5078
L5859 5078
L5889 5093
L5904 5108
L5919 5138
L5919 5213
L5904 5243
L5889 5258
L5859 5273
L5784 5273
L5754 5258
L5739 5243
" />
<text x="5544.53" y="5820.39"
textLength="2851.42" font-size="419.947" lengthAdjust="spacingAndGlyphs"
text-anchor="middle" opacity="0">1V8 (close)</text>
<path d="M4397 5805
L4217 5805
" />
<path d="M4307 5805
L4307 5490
L4277 5535
L4247 5565
L4217 5580
" />
<path d="M4487 5490
L4592 5805
L4697 5490
" />
<path d="M4847 5625
L4817 5610
L4802 5595
L4787 5565
L4787 5550
L4802 5520
L4817 5505
L4847 5490
L4907 5490
L4937 5505
L4952 5520
L4967 5550
L4967 5565
L4952 5595
L4937 5610
L4907 5625
L4847 5625
L4817 5640
L4802 5655
L4787 5685
L4787 5745
L4802 5775
L4817 5790
L4847 5805
L4907 5805
L4937 5790
L4952 5775
L4967 5745
L4967 5685
L4952 5655
L4937 5640
L4907 5625
" />
<path d="M5432 5925
L5417 5910
L5387 5865
L5372 5835
L5357 5790
L5342 5715
L5342 5655
L5357 5580
L5372 5535
L5387 5505
L5417 5460
L5432 5445
" />
<path d="M5687 5790
L5657 5805
L5597 5805
L5567 5790
L5552 5775
L5537 5745
L5537 5655
L5552 5625
L5567 5610
L5597 5595
L5657 5595
L5687 5610
" />
<path d="M5866 5805
L5836 5790
L5821 5760
L5821 5490
" />
<path d="M6031 5805
L6001 5790
L5986 5775
L5971 5745
L5971 5655
L5986 5625
L6001 5610
L6031 5595
L6076 5595
L6106 5610
L6121 5625
L6136 5655
L6136 5745
L6121 5775
L6106 5790
L6076 5805
L6031 5805
" />
<path d="M6256 5790
L6286 5805
L6346 5805
L6376 5790
L6391 5760
L6391 5745
L6376 5715
L6346 5700
L6301 5700
L6271 5685
L6256 5655
L6256 5640
L6271 5610
L6301 5595
L6346 5595
L6376 5610
" />
<path d="M6646 5790
L6616 5805
L6556 5805
L6526 5790
L6511 5760
L6511 5640
L6526 5610
L6556 5595
L6616 5595
L6646 5610
L6661 5640
L6661 5670
L6511 5700
" />
<path d="M6766 5925
L6781 5910
L6811 5865
L6826 5835
L6841 5790
L6856 5715
L6856 5655
L6841 5580
L6826 5535
L6811 5505
L6781 5460
L6766 5445
" />
</g>
<g style="fill:#008484; fill-opacity:0.0; 
stroke:#008484; stroke-width:39.3701; stroke-opacity:1; 
stroke-linecap:round; stroke-linejoin:round;">
</g>
<g style="fill:#008484; fill-opacity:1.0; 
stroke:#008484; stroke-width:39.3701; stroke-opacity:1; 
stroke-linecap:round; stroke-linejoin:round;">
<path style="fill:#008484; fill-opacity:1.0; 
stroke:#008484; stroke-width:39.3701; stroke-opacity:1; 
stroke-linecap:round; stroke-linejoin:round;fill-rule:evenodd;"
d="M 8679.53,4917.17
7532.53,4917.17
7532.53,3538.17
8679.53,3538.17
Z" /> 
<path style="fill:#008484; fill-opacity:1.0; 
stroke:#008484; stroke-width:39.3701; stroke-opacity:1; 
stroke-linecap:round; stroke-linejoin:round;fill-rule:evenodd;"
d="M 18121.5,7038.17
16537.5,7038.17
16537.5,6512.17
18121.5,6512.17
Z" /> 
<path style="fill:#008484; fill-opacity:1.0; 
stroke:#008484; stroke-width:39.3701; stroke-opacity:1; 
stroke-linecap:round; stroke-linejoin:round;fill-rule:evenodd;"
d="M 7325.79,13948.4
6479.33,13948.4
6469.49,13672.8
6459.65,13279.1
7325.79,13279.1
Z" /> 
</g>
<g style="fill:#008484; fill-opacity:1.0; 
stroke:#008484; stroke-width:59.0551; stroke-opacity:1; 
stroke-linecap:round; stroke-linejoin:round;">
</g>
<g style="fill:#008484; fill-opacity:0.0; 
stroke:#008484; stroke-width:59.0551; stroke-opacity:1; 
stroke-linecap:round; stroke-linejoin:round;">
<path d="M13864 8198
L13764 8098
" />
<path d="M13864 7998
L13864 8198
" />
<path d="M13764 8098
L13864 7998
" />
<path d="M14464 8198
L14564 8098
" />
<path d="M14464 7998
L14464 8198
" />
<path d="M14564 8098
L14464 7998
" />
<path d="M13764 8098
L14564 8098
" />
<text x="10164.4" y="5952.36"
textLength="616.704" font-size="419.947" lengthAdjust="spacingAndGlyphs"
text-anchor="middle" opacity="0">TX</text>
<path d="M9924 5622
L10104 5622
" />
<path d="M10014 5937
L10014 5622
" />
<path d="M10179 5622
L10389 5937
" />
<path d="M10389 5622
L10179 5937
" />
<text x="11164.4" y="5952.36"
textLength="691.695" font-size="419.947" lengthAdjust="spacingAndGlyphs"
text-anchor="middle" opacity="0">RX</text>
<path d="M11111 5937
L11006 5787
" />
<path d="M10931 5937
L10931 5622
L11051 5622
L11081 5637
L11096 5652
L11111 5682
L11111 5727
L11096 5757
L11081 5772
L11051 5787
L10931 5787
" />
<path d="M11216 5622
L11426 5937
" />
<path d="M11426 5622
L11216 5937
" />
<text x="16534.5" y="5214.65"
textLength="1066.65" font-size="419.947" lengthAdjust="spacingAndGlyphs"
text-anchor="end" opacity="0">v1.1</text>
<path d="M15551 4989
L15626 5199
L15701 4989
" />
<path d="M15986 5199
L15806 5199
" />
<path d="M15896 5199
L15896 4884
L15866 4929
L15836 4959
L15806 4974
" />
<path d="M16121 5169
L16136 5184
L16121 5199
L16106 5184
L16121 5169
L16121 5199
" />
<path d="M16436 5199
L16256 5199
" />
<path d="M16346 5199
L16346 4884
L16316 4929
L16286 4959
L16256 4974
" />
<path d="M19834 11307
L19714 11307
" />
<path d="M19834 13267
L19694 13257
" />
<path d="M19814 15247
L19694 15244
" />
<path d="M19804 17257
L19694 17257
" />
<text x="16364.5" y="21584.6"
textLength="1141.64" font-size="419.947" lengthAdjust="spacingAndGlyphs"
text-anchor="middle" opacity="0">VTGT</text>
<path d="M15862 21254
L15967 21569
L16072 21254
" />
<path d="M16132 21254
L16312 21254
" />
<path d="M16222 21569
L16222 21254
" />
<path d="M16582 21269
L16552 21254
L16507 21254
L16462 21269
L16432 21299
L16417 21329
L16402 21389
L16402 21434
L16417 21494
L16432 21524
L16462 21554
L16507 21569
L16537 21569
L16582 21554
L16596 21539
L16596 21434
L16537 21434
" />
<path d="M16686 21254
L16866 21254
" />
<path d="M16776 21569
L16776 21254
" />
<text x="13064.4" y="21615"
textLength="1186.63" font-size="419.947" lengthAdjust="spacingAndGlyphs"
text-anchor="middle" opacity="0">COPI</text>
<path d="M12764 21569
L12749 21584
L12704 21599
L12674 21599
L12629 21584
L12599 21554
L12584 21524
L12569 21464
L12569 21419
L12584 21359
L12599 21329
L12629 21300
L12674 21285
L12704 21285
L12749 21300
L12764 21314
" />
<path d="M12959 21285
L13019 21285
L13049 21300
L13079 21329
L13094 21389
L13094 21494
L13079 21554
L13049 21584
L13019 21599
L12959 21599
L12929 21584
L12899 21554
L12884 21494
L12884 21389
L12899 21329
L12929 21300
L12959 21285
" />
<path d="M13229 21599
L13229 21285
L13349 21285
L13379 21300
L13394 21314
L13409 21344
L13409 21389
L13394 21419
L13379 21434
L13349 21449
L13229 21449
" />
<path d="M13544 21599
L13544 21285
" />
<text x="12974.5" y="18624.6"
textLength="1036.65" font-size="419.947" lengthAdjust="spacingAndGlyphs"
text-anchor="middle" opacity="0">GND</text>
<path d="M12734 18309
L12704 18294
L12659 18294
L12614 18309
L12584 18339
L12569 18369
L12554 18429
L12554 18474
L12569 18534
L12584 18564
L12614 18594
L12659 18609
L12689 18609
L12734 18594
L12749 18579
L12749 18474
L12689 18474
" />
<path d="M12884 18609
L12884 18294
L13064 18609
L13064 18294
" />
<path d="M13214 18609
L13214 18294
L13289 18294
L13334 18309
L13364 18339
L13379 18369
L13394 18429
L13394 18474
L13379 18534
L13364 18564
L13334 18594
L13289 18609
L13214 18609
" />
<text x="13884.5" y="18264.6"
textLength="721.691" font-size="419.947" lengthAdjust="spacingAndGlyphs"
text-anchor="middle" opacity="0">NC</text>
<path d="M13637 18249
L13637 17934
L13817 18249
L13817 17934
" />
<path d="M14146 18219
L14131 18234
L14087 18249
L14057 18249
L14012 18234
L13982 18204
L13967 18174
L13952 18114
L13952 18069
L13967 18009
L13982 17979
L14012 17949
L14057 17934
L14087 17934
L14131 17949
L14146 17964
" />
<text x="16254.5" y="18464.6"
textLength="691.695" font-size="419.947" lengthAdjust="spacingAndGlyphs"
text-anchor="middle" opacity="0">CS</text>
<path d="M16202 18419
L16187 18434
L16142 18449
L16112 18449
L16067 18434
L16037 18404
L16022 18374
L16007 18314
L16007 18269
L16022 18209
L16037 18179
L16067 18149
L16112 18134
L16142 18134
L16187 18149
L16202 18164
" />
<path d="M16322 18434
L16367 18449
L16442 18449
L16472 18434
L16486 18419
L16501 18389
L16501 18359
L16486 18329
L16472 18314
L16442 18299
L16382 18284
L16352 18269
L16337 18254
L16322 18224
L16322 18194
L16337 18164
L16352 18149
L16382 18134
L16457 18134
L16501 18149
" />
<text x="15164.4" y="21615"
textLength="721.691" font-size="419.947" lengthAdjust="spacingAndGlyphs"
text-anchor="middle" opacity="0">NC</text>
<path d="M14916 21599
L14916 21285
L15096 21599
L15096 21285
" />
<path d="M15426 21569
L15411 21584
L15366 21599
L15336 21599
L15291 21584
L15261 21554
L15246 21524
L15231 21464
L15231 21419
L15246 21359
L15261 21329
L15291 21300
L15336 21285
L15366 21285
L15411 21300
L15426 21314
" />
<text x="14164.4" y="21365"
textLength="1006.66" font-size="419.947" lengthAdjust="spacingAndGlyphs"
text-anchor="middle" opacity="0">SCK</text>
<path d="M13759 21334
L13804 21349
L13879 21349
L13909 21334
L13924 21319
L13939 21289
L13939 21259
L13924 21229
L13909 21214
L13879 21199
L13819 21184
L13789 21169
L13774 21154
L13759 21124
L13759 21094
L13774 21064
L13789 21050
L13819 21035
L13894 21035
L13939 21050
" />
<path d="M14254 21319
L14239 21334
L14194 21349
L14164 21349
L14119 21334
L14089 21304
L14074 21274
L14059 21214
L14059 21169
L14074 21109
L14089 21079
L14119 21050
L14164 21035
L14194 21035
L14239 21050
L14254 21064
" />
<path d="M14389 21349
L14389 21035
" />
<path d="M14569 21349
L14434 21169
" />
<path d="M14569 21035
L14389 21214
" />
<text x="14874.5" y="18624.6"
textLength="1186.63" font-size="419.947" lengthAdjust="spacingAndGlyphs"
text-anchor="middle" opacity="0">CIPO</text>
<path d="M14574 18579
L14559 18594
L14514 18609
L14484 18609
L14439 18594
L14409 18564
L14394 18534
L14379 18474
L14379 18429
L14394 18369
L14409 18339
L14439 18309
L14484 18294
L14514 18294
L14559 18309
L14574 18324
" />
<path d="M14709 18609
L14709 18294
" />
<path d="M14859 18609
L14859 18294
L14979 18294
L15009 18309
L15024 18324
L15039 18354
L15039 18399
L15024 18429
L15009 18444
L14979 18459
L14859 18459
" />
<path d="M15234 18294
L15294 18294
L15324 18309
L15354 18339
L15369 18399
L15369 18504
L15354 18564
L15324 18594
L15294 18609
L15234 18609
L15204 18594
L15174 18564
L15159 18504
L15159 18399
L15174 18339
L15204 18309
L15234 18294
" />
<g transform="rotate(-270 1556.1 10976)">
<text x="1556.1" y="11133.5"
textLength="1141.64" font-size="419.947" lengthAdjust="spacingAndGlyphs"
text-anchor="middle" opacity="0">VTGT</text>
</g>
<path d="M1728 10473
L1413 10578
L1728 10683
" />
<path d="M1728 10743
L1728 10923
" />
<path d="M1413 10833
L1728 10833
" />
<path d="M1713 11193
L1728 11163
L1728 11118
L1713 11073
L1683 11043
L1653 11028
L1593 11013
L1548 11013
L1488 11028
L1458 11043
L1428 11073
L1413 11118
L1413 11148
L1428 11193
L1443 11208
L1548 11208
L1548 11148
" />
<path d="M1728 11298
L1728 11478
" />
<path d="M1413 11388
L1728 11388
" />
<g transform="rotate(-270 1556.1 9893.31)">
<text x="1556.1" y="10050.8"
textLength="916.667" font-size="419.947" lengthAdjust="spacingAndGlyphs"
text-anchor="middle" opacity="0">1v8</text>
</g>
<path d="M1413 9713
L1413 9533
" />
<path d="M1413 9623
L1728 9623
L1683 9593
L1653 9563
L1638 9533
" />
<path d="M1623 9818
L1413 9893
L1623 9968
" />
<path d="M1593 10133
L1608 10103
L1623 10088
L1653 10073
L1668 10073
L1698 10088
L1713 10103
L1728 10133
L1728 10193
L1713 10223
L1698 10238
L1668 10253
L1653 10253
L1623 10238
L1608 10223
L1593 10193
L1593 10133
L1578 10103
L1563 10088
L1533 10073
L1473 10073
L1443 10088
L1428 10103
L1413 10133
L1413 10193
L1428 10223
L1443 10238
L1473 10253
L1533 10253
L1563 10238
L1578 10223
L1593 10193
" />
<g transform="rotate(-270 1556.1 8909.06)">
<text x="1556.1" y="9066.54"
textLength="916.667" font-size="419.947" lengthAdjust="spacingAndGlyphs"
text-anchor="middle" opacity="0">3v3</text>
</g>
<path d="M1728 8534
L1728 8729
L1608 8624
L1608 8669
L1593 8699
L1578 8714
L1548 8729
L1473 8729
L1443 8714
L1428 8699
L1413 8669
L1413 8579
L1428 8549
L1443 8534
" />
<path d="M1623 8834
L1413 8909
L1623 8984
" />
<path d="M1728 9074
L1728 9269
L1608 9164
L1608 9209
L1593 9239
L1578 9254
L1548 9269
L1473 9269
L1443 9254
L1428 9239
L1413 9209
L1413 9119
L1428 9089
L1443 9074
" />
<g transform="rotate(-270 1556.1 8023.23)">
<text x="1556.1" y="8180.71"
textLength="616.704" font-size="419.947" lengthAdjust="spacingAndGlyphs"
text-anchor="middle" opacity="0">5v</text>
</g>
<path d="M1728 7978
L1728 7828
L1578 7813
L1593 7828
L1608 7858
L1608 7933
L1593 7963
L1578 7978
L1548 7993
L1473 7993
L1443 7978
L1428 7963
L1413 7933
L1413 7858
L1428 7828
L1443 7813
" />
<path d="M1623 8098
L1413 8173
L1623 8248
" />
<g transform="rotate(-180 16164.4 3094.88)">
<text x="16164.4" y="3252.36"
textLength="1021.65" font-size="419.947" lengthAdjust="spacingAndGlyphs"
text-anchor="middle" opacity="0">DCD</text>
</g>
<path d="M16561 2952
L16561 3267
L16486 3267
L16441 3252
L16411 3222
L16396 3192
L16381 3132
L16381 3087
L16396 3027
L16411 2997
L16441 2967
L16486 2952
L16561 2952
" />
<path d="M16066 2982
L16081 2967
L16126 2952
L16156 2952
L16201 2967
L16231 2997
L16246 3027
L16261 3087
L16261 3132
L16246 3192
L16231 3222
L16201 3252
L16156 3267
L16126 3267
L16081 3252
L16066 3237
" />
<path d="M15931 2952
L15931 3267
L15856 3267
L15811 3252
L15781 3222
L15766 3192
L15751 3132
L15751 3087
L15766 3027
L15781 2997
L15811 2967
L15856 2952
L15931 2952
" />
<g transform="rotate(-180 15164.4 3094.88)">
<text x="15164.4" y="3252.36"
textLength="1006.66" font-size="419.947" lengthAdjust="spacingAndGlyphs"
text-anchor="middle" opacity="0">DSR</text>
</g>
<path d="M15554 2952
L15554 3267
L15479 3267
L15434 3252
L15404 3222
L15389 3192
L15374 3132
L15374 3087
L15389 3027
L15404 2997
L15434 2967
L15479 2952
L15554 2952
" />
<path d="M15254 2967
L15209 2952
L15134 2952
L15104 2967
L15089 2982
L15074 3012
L15074 3042
L15089 3072
L15104 3087
L15134 3102
L15194 3117
L15224 3132
L15239 3147
L15254 3177
L15254 3207
L15239 3237
L15224 3252
L15194 3267
L15119 3267
L15074 3252
" />
<path d="M14759 2952
L14864 3102
" />
<path d="M14939 2952
L14939 3267
L14819 3267
L14789 3252
L14774 3237
L14759 3207
L14759 3162
L14774 3132
L14789 3117
L14819 3102
L14939 3102
" />
<g transform="rotate(-180 14164.4 3094.88)">
<text x="14164.4" y="3252.36"
textLength="946.663" font-size="419.947" lengthAdjust="spacingAndGlyphs"
text-anchor="middle" opacity="0">DTR</text>
</g>
<path d="M14524 2952
L14524 3267
L14449 3267
L14404 3252
L14374 3222
L14359 3192
L14344 3132
L14344 3087
L14359 3027
L14374 2997
L14404 2967
L14449 2952
L14524 2952
" />
<path d="M14254 3267
L14074 3267
" />
<path d="M14164 2952
L14164 3267
" />
<path d="M13789 2952
L13894 3102
" />
<path d="M13969 2952
L13969 3267
L13849 3267
L13819 3252
L13804 3237
L13789 3207
L13789 3162
L13804 3132
L13819 3117
L13849 3102
L13969 3102
" />
<g transform="rotate(-180 13164.4 3094.88)">
<text x="13164.4" y="3252.36"
textLength="931.665" font-size="419.947" lengthAdjust="spacingAndGlyphs"
text-anchor="middle" opacity="0">CTS</text>
</g>
<path d="M13336 2982
L13351 2967
L13396 2952
L13426 2952
L13471 2967
L13501 2997
L13516 3027
L13531 3087
L13531 3132
L13516 3192
L13501 3222
L13471 3252
L13426 3267
L13396 3267
L13351 3252
L13336 3237
" />
<path d="M13246 3267
L13066 3267
" />
<path d="M13156 2952
L13156 3267
" />
<path d="M12976 2967
L12931 2952
L12856 2952
L12826 2967
L12811 2982
L12796 3012
L12796 3042
L12811 3072
L12826 3087
L12856 3102
L12916 3117
L12946 3132
L12961 3147
L12976 3177
L12976 3207
L12961 3237
L12946 3252
L12916 3267
L12841 3267
L12796 3252
" />
<g transform="rotate(-180 12164.4 3094.88)">
<text x="12164.4" y="3252.36"
textLength="931.665" font-size="419.947" lengthAdjust="spacingAndGlyphs"
text-anchor="middle" opacity="0">RTS</text>
</g>
<path d="M12336 2952
L12441 3102
" />
<path d="M12516 2952
L12516 3267
L12396 3267
L12366 3252
L12351 3237
L12336 3207
L12336 3162
L12351 3132
L12366 3117
L12396 3102
L12516 3102
" />
<path d="M12246 3267
L12066 3267
" />
<path d="M12156 2952
L12156 3267
" />
<path d="M11976 2967
L11931 2952
L11856 2952
L11826 2967
L11811 2982
L11796 3012
L11796 3042
L11811 3072
L11826 3087
L11856 3102
L11916 3117
L11946 3132
L11961 3147
L11976 3177
L11976 3207
L11961 3237
L11946 3252
L11916 3267
L11841 3267
L11796 3252
" />
<g transform="rotate(-180 8064.37 3094.88)">
<text x="8064.37" y="3252.36"
textLength="1141.64" font-size="419.947" lengthAdjust="spacingAndGlyphs"
text-anchor="middle" opacity="0">VTGT</text>
</g>
<path d="M8566 3267
L8461 2952
L8356 3267
" />
<path d="M8296 3267
L8116 3267
" />
<path d="M8206 2952
L8206 3267
" />
<path d="M7846 3252
L7876 3267
L7921 3267
L7966 3252
L7996 3222
L8011 3192
L8026 3132
L8026 3087
L8011 3027
L7996 2997
L7966 2967
L7921 2952
L7891 2952
L7846 2967
L7831 2982
L7831 3087
L7891 3087
" />
<path d="M7741 3267
L7561 3267
" />
<path d="M7651 2952
L7651 3267
" />
<g transform="rotate(-180 11164.4 3094.88)">
<text x="11164.4" y="3252.36"
textLength="691.695" font-size="419.947" lengthAdjust="spacingAndGlyphs"
text-anchor="middle" opacity="0">RX</text>
</g>
<path d="M11216 2952
L11321 3102
" />
<path d="M11396 2952
L11396 3267
L11276 3267
L11246 3252
L11231 3237
L11216 3207
L11216 3162
L11231 3132
L11246 3117
L11276 3102
L11396 3102
" />
<path d="M11111 3267
L10901 2952
" />
<path d="M10901 3267
L11111 2952
" />
<g transform="rotate(-180 10164.4 3094.88)">
<text x="10164.4" y="3252.36"
textLength="616.704" font-size="419.947" lengthAdjust="spacingAndGlyphs"
text-anchor="middle" opacity="0">TX</text>
</g>
<path d="M10404 3267
L10224 3267
" />
<path d="M10314 2952
L10314 3267
" />
<path d="M10149 3267
L9939 2952
" />
<path d="M9939 3267
L10149 2952
" />
<g transform="rotate(-180 9164.37 3094.88)">
<text x="9164.37" y="3252.36"
textLength="1036.65" font-size="419.947" lengthAdjust="spacingAndGlyphs"
text-anchor="middle" opacity="0">GND</text>
</g>
<path d="M9404 3252
L9434 3267
L9479 3267
L9524 3252
L9554 3222
L9569 3192
L9584 3132
L9584 3087
L9569 3027
L9554 2997
L9524 2967
L9479 2952
L9449 2952
L9404 2967
L9389 2982
L9389 3087
L9449 3087
" />
<path d="M9254 2952
L9254 3267
L9074 2952
L9074 3267
" />
<path d="M8924 2952
L8924 3267
L8849 3267
L8804 3252
L8774 3222
L8759 3192
L8744 3132
L8744 3087
L8759 3027
L8774 2997
L8804 2967
L8849 2952
L8924 2952
" />
<g transform="rotate(-90 20084.5 11317.2)">
<text x="20084.5" y="11474.6"
textLength="1036.65" font-size="419.947" lengthAdjust="spacingAndGlyphs"
text-anchor="middle" opacity="0">GND</text>
</g>
<path d="M19927 11557
L19912 11587
L19912 11632
L19927 11677
L19957 11707
L19987 11722
L20047 11737
L20092 11737
L20152 11722
L20182 11707
L20212 11677
L20227 11632
L20227 11602
L20212 11557
L20197 11542
L20092 11542
L20092 11602
" />
<path d="M20227 11407
L19912 11407
L20227 11227
L19912 11227
" />
<path d="M20227 11077
L19912 11077
L19912 11002
L19927 10957
L19957 10927
L19987 10912
L20047 10897
L20092 10897
L20152 10912
L20182 10927
L20212 10957
L20227 11002
L20227 11077
" />
<g transform="rotate(-90 20004.5 10177.2)">
<text x="20004.5" y="10334.6"
textLength="1141.64" font-size="419.947" lengthAdjust="spacingAndGlyphs"
text-anchor="middle" opacity="0">VTGT</text>
</g>
<path d="M19832 10679
L20147 10574
L19832 10469
" />
<path d="M19832 10409
L19832 10229
" />
<path d="M20147 10319
L19832 10319
" />
<path d="M19847 9959
L19832 9989
L19832 10034
L19847 10079
L19877 10109
L19907 10124
L19967 10139
L20012 10139
L20072 10124
L20102 10109
L20132 10079
L20147 10034
L20147 10004
L20132 9959
L20117 9944
L20012 9944
L20012 10004
" />
<path d="M19832 9854
L19832 9674
" />
<path d="M20147 9764
L19832 9764
" />
<g transform="rotate(-90 19944.5 16307.2)">
<text x="19944.5" y="16464.6"
textLength="1171.63" font-size="419.947" lengthAdjust="spacingAndGlyphs"
text-anchor="middle" opacity="0">TRST</text>
</g>
<path d="M19772 16824
L19772 16644
" />
<path d="M20087 16734
L19772 16734
" />
<path d="M20087 16359
L19937 16464
" />
<path d="M20087 16539
L19772 16539
L19772 16419
L19787 16389
L19802 16374
L19832 16359
L19877 16359
L19907 16374
L19922 16389
L19937 16419
L19937 16539
" />
<path d="M20072 16239
L20087 16194
L20087 16119
L20072 16089
L20057 16074
L20027 16059
L19997 16059
L19967 16074
L19952 16089
L19937 16119
L19922 16179
L19907 16209
L19892 16224
L19862 16239
L19832 16239
L19802 16224
L19787 16209
L19772 16179
L19772 16104
L19787 16059
" />
<path d="M19772 15969
L19772 15789
" />
<path d="M20087 15879
L19772 15879
" />
<g transform="rotate(-90 20104.5 13267.2)">
<text x="20104.5" y="13424.6"
textLength="781.683" font-size="419.947" lengthAdjust="spacingAndGlyphs"
text-anchor="middle" opacity="0">TDI</text>
</g>
<path d="M19932 13589
L19932 13409
" />
<path d="M20247 13499
L19932 13499
" />
<path d="M20247 13304
L19932 13304
L19932 13229
L19947 13184
L19977 13154
L20007 13139
L20067 13124
L20112 13124
L20172 13139
L20202 13154
L20232 13184
L20247 13229
L20247 13304
" />
<path d="M20247 12989
L19932 12989
" />
<g transform="rotate(-90 20054.5 15207.2)">
<text x="20054.5" y="15364.6"
textLength="976.659" font-size="419.947" lengthAdjust="spacingAndGlyphs"
text-anchor="middle" opacity="0">TMS</text>
</g>
<path d="M19882 15627
L19882 15447
" />
<path d="M20197 15537
L19882 15537
" />
<path d="M20197 15342
L19882 15342
L20107 15237
L19882 15132
L20197 15132
" />
<path d="M20182 14997
L20197 14952
L20197 14877
L20182 14847
L20167 14832
L20137 14817
L20107 14817
L20077 14832
L20062 14847
L20047 14877
L20032 14937
L20017 14967
L20002 14982
L19972 14997
L19942 14997
L19912 14982
L19897 14967
L19882 14937
L19882 14862
L19897 14817
" />
<g transform="rotate(-90 19954.5 12307.2)">
<text x="19954.5" y="12464.6"
textLength="946.663" font-size="419.947" lengthAdjust="spacingAndGlyphs"
text-anchor="middle" opacity="0">TCK</text>
</g>
<path d="M19782 12712
L19782 12532
" />
<path d="M20097 12622
L19782 12622
" />
<path d="M20067 12247
L20082 12262
L20097 12307
L20097 12337
L20082 12382
L20052 12412
L20022 12427
L19962 12442
L19917 12442
L19857 12427
L19827 12412
L19797 12382
L19782 12337
L19782 12307
L19797 12262
L19812 12247
" />
<path d="M20097 12112
L19782 12112
" />
<path d="M20097 11932
L19917 12067
" />
<path d="M19782 11932
L19962 12112
" />
<g transform="rotate(-90 19974.5 14267.2)">
<text x="19974.5" y="14424.6"
textLength="961.661" font-size="419.947" lengthAdjust="spacingAndGlyphs"
text-anchor="middle" opacity="0">TDO</text>
</g>
<path d="M19802 14679
L19802 14499
" />
<path d="M20117 14589
L19802 14589
" />
<path d="M20117 14394
L19802 14394
L19802 14319
L19817 14274
L19847 14244
L19877 14229
L19937 14214
L19982 14214
L20042 14229
L20072 14244
L20102 14274
L20117 14319
L20117 14394
" />
<path d="M19802 14019
L19802 13959
L19817 13929
L19847 13899
L19907 13884
L20012 13884
L20072 13899
L20102 13929
L20117 13959
L20117 14019
L20102 14049
L20072 14079
L20012 14094
L19907 14094
L19847 14079
L19817 14049
L19802 14019
" />
<g transform="rotate(-90 20084.5 17457.2)">
<text x="20084.5" y="17614.6"
textLength="1231.63" font-size="419.947" lengthAdjust="spacingAndGlyphs"
text-anchor="middle" opacity="0">SRST</text>
</g>
<path d="M20212 17974
L20227 17929
L20227 17854
L20212 17824
L20197 17809
L20167 17794
L20137 17794
L20107 17809
L20092 17824
L20077 17854
L20062 17914
L20047 17944
L20032 17959
L20002 17974
L19972 17974
L19942 17959
L19927 17944
L19912 17914
L19912 17839
L19927 17794
" />
<path d="M20227 17479
L20077 17584
" />
<path d="M20227 17659
L19912 17659
L19912 17539
L19927 17509
L19942 17494
L19972 17479
L20017 17479
L20047 17494
L20062 17509
L20077 17539
L20077 17659
" />
<path d="M20212 17359
L20227 17314
L20227 17239
L20212 17209
L20197 17194
L20167 17179
L20137 17179
L20107 17194
L20092 17209
L20077 17239
L20062 17299
L20047 17329
L20032 17344
L20002 17359
L19972 17359
L19942 17344
L19927 17329
L19912 17299
L19912 17224
L19927 17179
" />
<path d="M19912 17089
L19912 16909
" />
<path d="M20227 16999
L19912 16999
" />
<text x="15164.4" y="8186.61"
textLength="1051.65" font-size="419.947" lengthAdjust="spacingAndGlyphs"
text-anchor="middle" opacity="0">SWD</text>
<path d="M14736 8156
L14781 8171
L14856 8171
L14886 8156
L14901 8141
L14916 8111
L14916 8081
L14901 8051
L14886 8036
L14856 8021
L14796 8006
L14766 7991
L14751 7976
L14736 7946
L14736 7916
L14751 7886
L14766 7871
L14796 7856
L14871 7856
L14916 7871
" />
<path d="M15021 7856
L15096 8171
L15156 7946
L15216 8171
L15291 7856
" />
<path d="M15411 8171
L15411 7856
L15486 7856
L15531 7871
L15561 7901
L15576 7931
L15591 7991
L15591 8036
L15576 8096
L15561 8126
L15531 8156
L15486 8171
L15411 8171
" />
<text x="15164.4" y="8718.11"
textLength="841.676" font-size="419.947" lengthAdjust="spacingAndGlyphs"
text-anchor="middle" opacity="0">I2C</text>
<path d="M14856 8703
L14856 8388
" />
<path d="M14991 8418
L15006 8403
L15036 8388
L15111 8388
L15141 8403
L15156 8418
L15171 8448
L15171 8478
L15156 8523
L14976 8703
L15171 8703
" />
<path d="M15486 8673
L15471 8688
L15426 8703
L15396 8703
L15351 8688
L15321 8658
L15306 8628
L15291 8568
L15291 8523
L15306 8463
L15321 8433
L15351 8403
L15396 8388
L15426 8388
L15471 8403
L15486 8418
" />
<text x="13164.4" y="8186.61"
textLength="1141.64" font-size="419.947" lengthAdjust="spacingAndGlyphs"
text-anchor="middle" opacity="0">JTAG</text>
<path d="M12796 7856
L12796 8081
L12781 8126
L12751 8156
L12706 8171
L12676 8171
" />
<path d="M12901 7856
L13081 7856
" />
<path d="M12991 8171
L12991 7856
" />
<path d="M13171 8081
L13321 8081
" />
<path d="M13141 8171
L13246 7856
L13351 8171
" />
<path d="M13621 7871
L13591 7856
L13546 7856
L13501 7871
L13471 7901
L13456 7931
L13441 7991
L13441 8036
L13456 8096
L13471 8126
L13501 8156
L13546 8171
L13576 8171
L13621 8156
L13636 8141
L13636 8036
L13576 8036
" />
<text x="13164.4" y="8718.11"
textLength="841.676" font-size="419.947" lengthAdjust="spacingAndGlyphs"
text-anchor="middle" opacity="0">SPI</text>
<path d="M12841 8688
L12886 8703
L12961 8703
L12991 8688
L13006 8673
L13021 8643
L13021 8613
L13006 8583
L12991 8568
L12961 8553
L12901 8538
L12871 8523
L12856 8508
L12841 8478
L12841 8448
L12856 8418
L12871 8403
L12901 8388
L12976 8388
L13021 8403
" />
<path d="M13156 8703
L13156 8388
L13276 8388
L13306 8403
L13321 8418
L13336 8448
L13336 8493
L13321 8523
L13306 8538
L13276 8553
L13156 8553
" />
<path d="M13471 8703
L13471 8388
" />
<text x="9164.37" y="8352.36"
textLength="1066.65" font-size="419.947" lengthAdjust="spacingAndGlyphs"
text-anchor="middle" opacity="0">PWR</text>
<path d="M8744 8337
L8744 8022
L8864 8022
L8894 8037
L8909 8052
L8924 8082
L8924 8127
L8909 8157
L8894 8172
L8864 8187
L8744 8187
" />
<path d="M9029 8022
L9104 8337
L9164 8112
L9224 8337
L9299 8022
" />
<path d="M9599 8337
L9494 8187
" />
<path d="M9419 8337
L9419 8022
L9539 8022
L9569 8037
L9584 8052
L9599 8082
L9599 8127
L9584 8157
L9569 8172
L9539 8187
L9419 8187
" />
<text x="11164.4" y="8352.36"
textLength="1141.64" font-size="419.947" lengthAdjust="spacingAndGlyphs"
text-anchor="middle" opacity="0">VTGT</text>
<path d="M10661 8022
L10766 8337
L10871 8022
" />
<path d="M10931 8022
L11111 8022
" />
<path d="M11021 8337
L11021 8022
" />
<path d="M11381 8037
L11351 8022
L11306 8022
L11261 8037
L11231 8067
L11216 8097
L11201 8157
L11201 8202
L11216 8262
L11231 8292
L11261 8322
L11306 8337
L11336 8337
L11381 8322
L11396 8307
L11396 8202
L11336 8202
" />
<path d="M11486 8022
L11666 8022
" />
<path d="M11576 8337
L11576 8022
" />
<text x="10164.4" y="8352.36"
textLength="691.695" font-size="419.947" lengthAdjust="spacingAndGlyphs"
text-anchor="middle" opacity="0">EN</text>
<path d="M9931 8172
L10036 8172
" />
<path d="M10081 8337
L9931 8337
L9931 8022
L10081 8022
" />
<path d="M10216 8337
L10216 8022
L10396 8337
L10396 8022
" />
</g>
<g style="fill:#008484; fill-opacity:0.0; 
stroke:#008484; stroke-width:47.2441; stroke-opacity:1; 
stroke-linecap:round; stroke-linejoin:round;">
<path d="M8487 12391
L9451 12391
" />
<path d="M9195 11123
L8487 11123
" />
<path d="M18148 9457
L18348 9457
" />
<path d="M18348 9457
L18348 9257
" />
<path d="M18348 9457
L18048 9157
" />
<path d="M18348 9457
L18148 9457
" />
</g>
<g style="fill:#008484; fill-opacity:0.0; 
stroke:#008484; stroke-width:196.85; stroke-opacity:1; 
stroke-linecap:round; stroke-linejoin:round;">
<path d="M18624 9733
L19148 9733
" />
<path d="M18624 10257
L18624 9733
" />
</g>
<g style="fill:#008484; fill-opacity:0.0; 
stroke:#008484; stroke-width:47.2441; stroke-opacity:1; 
stroke-linecap:round; stroke-linejoin:round;">
<path d="M18624 10757
L19671 10757
" />
<path d="M19671 10757
L19671 18781
" />
<path d="M18624 10757
L18624 18781
" />
<path d="M18624 18781
L19671 18781
" />
<path d="M16964 18385
L16964 18585
" />
<path d="M16964 18585
L17164 18585
" />
<path d="M16964 18585
L17264 18285
" />
<path d="M16964 18585
L16964 18385
" />
<path d="M12640 18861
L12640 20909
" />
<path d="M15664 18861
L12640 18861
" />
<path d="M16687 20909
L12640 20909
" />
<path d="M15664 18861
L15664 19885
" />
<path d="M15664 19885
L16687 19885
" />
<path d="M16687 19885
L16687 20909
" />
</g>
<g style="fill:#008484; fill-opacity:0.0; 
stroke:#008484; stroke-width:196.85; stroke-opacity:1; 
stroke-linecap:round; stroke-linejoin:round;">
<path d="M16164 18861
L16687 18861
" />
<path d="M16687 18861
L16687 19385
" />
</g>
<g style="fill:#008484; fill-opacity:0.0; 
stroke:#008484; stroke-width:47.2441; stroke-opacity:1; 
stroke-linecap:round; stroke-linejoin:round;">
<path d="M18859 9042
L18859 9068
" />
<path d="M17469 9042
L17469 9068
" />
<path d="M18859 6521
L18859 6546
" />
<path d="M17469 6521
L17469 6546
" />
<path d="M16947 6546
L17469 6546
" />
<path d="M17469 9068
L18859 9068
" />
<path d="M17469 6521
L18859 6521
" />
<path d="M17064 6394
L16922 6253
" />
<path d="M16922 6253
L17064 6394
" />
<path d="M17064 6394
L17205 6253
" />
<path d="M17064 6394
L17064 5970
" />
<path d="M11448 18675
L11589 18533
" />
<path d="M11589 18533
L11448 18675
" />
<path d="M11448 18675
L11589 18816
" />
<path d="M11448 18675
L11872 18675
" />
<path d="M7800 20470
L7774 20470
" />
<path d="M7800 19080
L7774 19080
" />
<path d="M11321 20470
L11296 20470
" />
<path d="M11321 19080
L11296 19080
" />
<path d="M11296 18558
L11296 19080
" />
<path d="M7774 19080
L7774 20470
" />
<path d="M11321 19080
L11321 20470
" />
<path d="M7184 13668
L6656 13668
" />
<path d="M7184 13294
L7184 13668
" />
<path d="M7558 13294
L7184 13294
" />
<path d="M11207 13294
L11207 13668
" />
<path d="M10833 13294
L11207 13294
" />
<path d="M7184 17318
L7184 16944
" />
<path d="M7558 17318
L7184 17318
" />
<path d="M11207 17318
L11207 16944
" />
<path d="M10833 17318
L11207 17318
" />
<path d="M1518 13456
L770 13456
" />
<path d="M3054 13456
L2266 13456
" />
<path d="M1518 17157
L770 17157
" />
<path d="M3054 17157
L2266 17157
" />
<path d="M770 13456
L770 17157
" />
<path d="M6902 8173
L6193 8173
" />
<path d="M6193 9441
L7158 9441
" />
<path d="M6210 11091
L7175 11091
" />
<path d="M6919 9823
L6210 9823
" />
<path d="M4973 10621
L4973 10742
" />
<path d="M5272 10621
L5272 10742
" />
<path d="M4847 9757
L4847 9636
" />
<path d="M4548 9757
L4548 9636
" />
<path d="M4847 10732
L4847 10611
" />
<path d="M4548 10732
L4548 10611
" />
<path d="M4424 7031
L4424 6507
" />
<path d="M4948 7031
L4424 7031
" />
<path d="M5448 7031
L5448 5983
" />
<path d="M5448 5983
L6471 5983
" />
<path d="M5448 7031
L6471 7031
" />
<path d="M6471 7031
L6471 5983
" />
<path d="M15425 13138
L16291 13138
" />
<path d="M15425 13138
L14559 13138
" />
<path d="M15425 9961
L16291 9961
" />
<path d="M15425 9961
L14007 9961
" />
<path d="M4526 21066
L4526 20082
" />
<path d="M4526 20082
L4940 20082
" />
<path d="M4940 20082
L4940 19692
" />
<path d="M6975 21066
L6975 20082
" />
<path d="M6975 20082
L6562 20082
" />
<path d="M4987 21842
L6515 21842
" />
</g>
<g style="fill:#008484; fill-opacity:0.0; 
stroke:#008484; stroke-width:59.0551; stroke-opacity:1; 
stroke-linecap:round; stroke-linejoin:round;">
<circle cx="5498.23" cy="4057.48" r="551.181" /> 
</g>
<g style="fill:#008484; fill-opacity:0.0; 
stroke:#008484; stroke-width:47.2441; stroke-opacity:1; 
stroke-linecap:round; stroke-linejoin:round;">
<path d="M12810 7531
L12337 7531
" />
<path d="M12337 7531
L12337 5877
" />
<path d="M12337 5877
L12810 5877
" />
<path d="M15487 5877
L15959 5877
" />
<path d="M15959 5877
L15959 7531
" />
<path d="M15959 7531
L15487 7531
" />
<path d="M12691 7649
L12219 7649
" />
<path d="M12219 7649
L12219 7176
" />
<path d="M7348 5057
L7348 4857
" />
<path d="M7348 4857
L7148 4857
" />
<path d="M7348 4857
L7048 5157
" />
<path d="M7348 4857
L7348 5057
" />
</g>
<g style="fill:#008484; fill-opacity:0.0; 
stroke:#008484; stroke-width:196.85; stroke-opacity:1; 
stroke-linecap:round; stroke-linejoin:round;">
<path d="M7624 4581
L7624 4057
" />
<path d="M8148 4581
L7624 4581
" />
</g>
<g style="fill:#008484; fill-opacity:0.0; 
stroke:#008484; stroke-width:47.2441; stroke-opacity:1; 
stroke-linecap:round; stroke-linejoin:round;">
<path d="M8648 4581
L8648 3533
" />
<path d="M8648 3533
L16671 3533
" />
<path d="M8648 4581
L16671 4581
" />
<path d="M16671 4581
L16671 3533
" />
<path d="M2266 6330
L2266 6802
" />
<path d="M2739 6330
L2266 6330
" />
<path d="M2384 12353
L3684 12353
" />
<path d="M3684 6448
L2384 6448
" />
<path d="M2384 6448
L2384 7038
" />
<path d="M3684 6448
L3684 7038
" />
<path d="M3684 12353
L3684 11763
" />
<path d="M2384 12353
L2384 11763
" />
<path d="M3684 8613
L3684 9401
" />
<path d="M2384 8613
L2384 9401
" />
<path d="M15398 13914
L13980 13914
" />
<path d="M15398 13914
L16264 13914
" />
<path d="M15398 17092
L14532 17092
" />
<path d="M15398 17092
L16264 17092
" />
<path d="M13446 15542
L13249 15542
" />
<path d="M13446 16472
L13249 16472
" />
<path d="M8875 8510
L8875 9409
" />
<path d="M9453 8510
L8875 8510
" />
<path d="M9453 9409
L9453 8510
" />
<path d="M11453 9409
L11453 8510
" />
<path d="M11453 8510
L10875 8510
" />
<path d="M10875 8510
L10875 9409
" />
<path d="M10875 6110
L10875 7009
" />
<path d="M11453 6110
L10875 6110
" />
<path d="M11453 7009
L11453 6110
" />
<path d="M10453 7009
L10453 6110
" />
<path d="M10453 6110
L9875 6110
" />
<path d="M9875 6110
L9875 7009
" />
<path d="M10453 9409
L10453 8510
" />
<path d="M10453 8510
L9875 8510
" />
<path d="M9875 8510
L9875 9409
" />
<path d="M13496 11519
L13299 11519
" />
<path d="M13496 10590
L13299 10590
" />
<path d="M13496 12542
L13299 12542
" />
<path d="M13496 11613
L13299 11613
" />
<path d="M17727 11775
L17530 11775
" />
<path d="M17727 10846
L17530 10846
" />
<path d="M17727 12798
L17530 12798
" />
<path d="M17727 11869
L17530 11869
" />
<path d="M13446 14527
L13249 14527
" />
<path d="M13446 15456
L13249 15456
" />
<path d="M17727 15712
L17530 15712
" />
<path d="M17727 14783
L17530 14783
" />
<path d="M17727 15806
L17530 15806
" />
<path d="M17727 16735
L17530 16735
" />
<path d="M11294 10676
L10928 10676
" />
<path d="M10050 10676
L10416 10676
" />
<path d="M10050 10676
L10050 11527
" />
<path d="M11294 10676
L11294 11251
" />
<path d="M7128 11842
L5554 11842
" />
<path d="M7128 13141
L7128 11842
" />
</g>
<g style="fill:#008484; fill-opacity:1.0; 
stroke:#008484; stroke-width:3.93701; stroke-opacity:1; 
stroke-linecap:round; stroke-linejoin:round;">
<path style="fill:#008484; fill-opacity:1.0; 
stroke:#008484; stroke-width:3.93701; stroke-opacity:1; 
stroke-linecap:round; stroke-linejoin:round;fill-rule:evenodd;"
d="M 4774.48,17409.8
4790.02,17409.8
4804.98,17409.9
4819.08,17410
4832.07,17410.1
4843.68,17410.2
4853.64,17410.4
4861.69,17410.6
4867.56,17410.8
4871,17411.1
4871.76,17411.3
4874.69,17413.7
4875.85,17415.3
4876.32,17417
4877.26,17421.4
4878.64,17428.1
4880.41,17437
4882.53,17447.9
4884.96,17460.5
4887.66,17474.5
4890.57,17489.9
4893.67,17506.3
4896.91,17523.6
4898.07,17529.9
4901.34,17547.4
4904.47,17564.2
4907.42,17579.9
4910.15,17594.5
4912.61,17607.6
4914.77,17619
4916.59,17628.6
4918.02,17636.1
4919.03,17641.3
4919.57,17644
4919.64,17644.3
4921.15,17646.9
4923.58,17649.6
4925.67,17650.9
4930.14,17653
4936.68,17656
4945,17659.7
4954.83,17663.9
4965.85,17668.6
4977.79,17673.5
4990.36,17678.7
5003.25,17684
5016.19,17689.3
5028.87,17694.4
5041.01,17699.2
5052.32,17703.7
5062.51,17707.6
5071.28,17710.9
5078.34,17713.5
5083.41,17715.2
5086.2,17715.9
5086.43,17715.9
5090.64,17715.4
5095.32,17713.3
5100,17710.3
5102.87,17708.3
5107.81,17704.9
5114.56,17700.3
5122.82,17694.6
5132.33,17688.1
5142.79,17680.9
5153.94,17673.3
5163.22,17666.9
5175.93,17658.2
5189.2,17649.1
5202.58,17640
5215.6,17631
5227.81,17622.6
5238.76,17615.1
5247.99,17608.8
5251.03,17606.7
5261.6,17599.5
5270.08,17593.8
5276.71,17589.6
5281.69,17586.7
5285.25,17584.9
5287.62,17584.2
5288.16,17584.1
5289.13,17584.3
5290.45,17584.9
5292.24,17586.1
5294.65,17588
5297.8,17590.8
5301.82,17594.4
5306.86,17599.2
5313.05,17605.1
5320.51,17612.4
5329.38,17621.2
5339.8,17631.5
5351.9,17643.5
5365.81,17657.4
5373.55,17665.2
5390.27,17681.9
5404.98,17696.7
5417.72,17709.6
5428.53,17720.6
5437.46,17729.9
5444.55,17737.3
5449.84,17743
5453.38,17747.1
5455.21,17749.5
5455.49,17750.1
5455.61,17754.1
5454.82,17756.9
5453.79,17758.5
5451.26,17762.2
5447.37,17768
5442.24,17775.6
5435.99,17784.7
5428.76,17795.3
5420.67,17807.1
5411.85,17820
5402.43,17833.8
5392.52,17848.2
5390.21,17851.6
5378.35,17868.9
5368.02,17884
5359.11,17897
5351.54,17908.2
5345.2,17917.7
5339.98,17925.5
5335.79,17932
5332.52,17937.2
5330.08,17941.3
5328.37,17944.4
5327.28,17946.8
5326.71,17948.4
5326.58,17949.2
5326.59,17950.7
5326.91,17952.7
5327.63,17955.4
5328.82,17959
5330.56,17963.8
5332.93,17969.8
5336.02,17977.4
5339.9,17986.7
5344.64,17997.9
5350.34,18011.2
5357.07,18026.8
5360.89,18035.7
5368.89,18054.1
5375.84,18070
5381.8,18083.5
5386.81,18094.6
5390.93,18103.5
5394.19,18110.3
5396.65,18115.1
5398.36,18118
5399.16,18118.9
5401.2,18119.8
5405.43,18121
5411.95,18122.6
5420.86,18124.5
5432.26,18126.8
5446.24,18129.5
5462.92,18132.7
5468.31,18133.7
5492.55,18138.2
5514.14,18142.2
5533.23,18145.7
5549.98,18148.9
5564.56,18151.6
5577.1,18154
5587.78,18156
5596.75,18157.7
5604.16,18159.2
5610.17,18160.4
5614.94,18161.5
5618.63,18162.3
5621.39,18163.1
5623.38,18163.7
5624.75,18164.3
5625.67,18164.8
5626.28,18165.3
5626.75,18165.8
5627.24,18166.4
5627.28,18166.5
5630.49,18170.2
5630.49,18398.9
5626.56,18402.7
5625.7,18403.4
5624.59,18404.2
5623.02,18404.9
5620.81,18405.6
5617.74,18406.5
5613.64,18407.5
5608.3,18408.7
5601.53,18410.1
5593.14,18411.8
5582.91,18413.7
5570.67,18416
5556.21,18418.7
5539.34,18421.8
5519.86,18425.4
5519.03,18425.5
5502.06,18428.7
5485.79,18431.7
5470.46,18434.6
5456.31,18437.3
5443.57,18439.7
5432.49,18441.9
5423.29,18443.7
5416.22,18445.1
5411.51,18446.2
5409.47,18446.7
5405.29,18448.7
5402.09,18451.2
5401.5,18452
5400.63,18453.8
5398.8,18458.1
5396.11,18464.5
5392.64,18473
5388.5,18483.1
5383.77,18494.7
5378.57,18507.6
5372.97,18521.5
5367.07,18536.3
5365.41,18540.4
5358.57,18557.6
5352.71,18572.3
5347.77,18584.7
5343.67,18595.1
5340.35,18603.7
5337.72,18610.6
5335.73,18616.1
5334.28,18620.4
5333.32,18623.7
5332.77,18626.1
5332.55,18627.9
5332.6,18629.3
5332.84,18630.5
5333.04,18631.1
5334.11,18633.2
5336.68,18637.4
5340.62,18643.5
5345.78,18651.4
5352.04,18660.9
5359.27,18671.7
5367.33,18683.7
5376.08,18696.6
5385.41,18710.3
5394.12,18723
5403.82,18737.1
5413.06,18750.5
5421.71,18763.2
5429.65,18774.8
5436.75,18785.1
5442.86,18794.1
5447.87,18801.5
5451.64,18807
5454.04,18810.6
5454.93,18812
5455.7,18815.4
5455.49,18818.6
5454.47,18820.2
5451.76,18823.5
5447.31,18828.4
5441.09,18835
5433.05,18843.4
5423.15,18853.5
5411.34,18865.5
5397.59,18879.4
5381.84,18895.2
5373.38,18903.7
5358.66,18918.4
5345.82,18931.2
5334.72,18942.3
5325.23,18951.7
5317.2,18959.6
5310.51,18966.1
5305.01,18971.4
5300.56,18975.6
5297.03,18978.8
5294.28,18981.1
5292.17,18982.7
5290.57,18983.7
5289.33,18984.2
5288.31,18984.3
5287.39,18984.3
5287.33,18984.3
5285.32,18983.6
5281.69,18981.6
5276.34,18978.4
5269.19,18973.9
5260.13,18967.9
5249.06,18960.5
5235.88,18951.6
5220.51,18941.1
5216.8,18938.6
5203.72,18929.6
5190.66,18920.6
5177.95,18911.9
5165.89,18903.6
5154.82,18896
5145.03,18889.3
5136.86,18883.7
5130.62,18879.4
5128.96,18878.3
5120.53,18872.5
5114.05,18868.4
5109.19,18865.5
5105.62,18863.8
5102.99,18863.1
5102.12,18863.1
5099.68,18863.6
5095.56,18865.1
5089.6,18867.8
5081.65,18871.8
5071.56,18877
5059.17,18883.5
5057.28,18884.5
5047.39,18889.8
5038.23,18894.5
5030.13,18898.7
5023.41,18902
5018.39,18904.5
5015.39,18905.8
5014.73,18905.9
5011.57,18905.1
5009.85,18904.2
5009.09,18902.7
5007.31,18898.8
5004.59,18892.6
5001,18884.2
4996.63,18874
4991.54,18862
4985.82,18848.5
4979.53,18833.6
4972.75,18817.5
4965.56,18800.4
4958.03,18782.4
4950.24,18763.8
4942.26,18744.7
4934.17,18725.3
4926.04,18705.8
4917.95,18686.3
4909.97,18667.1
4902.18,18648.3
4894.65,18630.1
4887.46,18612.7
4880.68,18596.3
4874.39,18581
4868.67,18567
4863.58,18554.6
4859.21,18543.8
4855.62,18534.9
4852.9,18528.1
4851.11,18523.4
4850.35,18521.2
4850.32,18521.1
4851.27,18517.8
4854.09,18514.2
4859.04,18510.1
4866.38,18505.2
4866.44,18505.2
4891.25,18488.3
4913.39,18470.5
4932.88,18451.8
4949.8,18432.1
4964.17,18411.3
4976.06,18389.4
4985.52,18366.3
4986.71,18362.8
4990.13,18352.1
4992.8,18342.8
4994.8,18334.4
4996.23,18326.1
4997.17,18317.3
4997.72,18307.4
4997.98,18295.8
4998.03,18285
4998,18273.7
4997.89,18264.8
4997.68,18257.6
4997.31,18251.8
4996.78,18246.9
4996.03,18242.2
4995.04,18237.3
4994.87,18236.6
4987.66,18210.3
4978.13,18185.5
4966.24,18162.4
4951.95,18140.7
4935.19,18120.4
4931.01,18115.9
4911.84,18098
4891.01,18082.3
4868.72,18069
4845.16,18058.1
4820.54,18049.8
4795.05,18044.2
4785.5,18042.8
4775.43,18041.9
4763.54,18041.6
4750.63,18041.7
4737.52,18042.2
4725,18043.1
4713.88,18044.4
4706.66,18045.7
4681.05,18052.5
4656.65,18061.9
4633.61,18073.6
4612.07,18087.5
4592.18,18103.5
4574.1,18121.4
4557.98,18141.1
4543.96,18162.6
4532.2,18185.5
4522.84,18209.9
4522.56,18210.7
4516.12,18235.5
4512.31,18260.9
4511.13,18286.6
4512.57,18312.3
4516.64,18337.6
4523.16,18361.5
4532.09,18384.6
4543.18,18406.3
4556.54,18426.8
4572.27,18446.2
4590.46,18464.6
4611.21,18482.1
4634.62,18498.8
4643.34,18504.4
4649.79,18508.6
4654.15,18511.9
4656.88,18514.5
4658.4,18516.9
4658.73,18517.8
4658.89,18518.5
4658.91,18519.5
4658.73,18520.9
4658.29,18522.8
4657.56,18525.3
4656.47,18528.6
4654.97,18532.8
4653.02,18538
4650.56,18544.4
4647.55,18552
4643.92,18561.1
4639.63,18571.7
4634.63,18584
4628.86,18598
4622.28,18614
4614.83,18632.1
4606.46,18652.4
4597.13,18675
4586.77,18700
4581.63,18712.4
4572.42,18734.6
4563.49,18756.1
4554.89,18776.8
4546.7,18796.4
4538.96,18814.9
4531.75,18832
4525.13,18847.7
4519.16,18861.8
4513.91,18874.1
4509.43,18884.5
4505.8,18892.9
4503.07,18899.1
4501.31,18902.9
4500.6,18904.2
4497.39,18905.7
4495.66,18905.9
4493.81,18905.3
4489.78,18903.4
4483.89,18900.5
4476.46,18896.7
4467.82,18892.2
4458.29,18887.2
4453.25,18884.5
4440.83,18877.9
4430.7,18872.6
4422.67,18868.6
4416.54,18865.7
4412.13,18863.9
4409.26,18863.1
4408.52,18863.1
4407.27,18863.3
4405.42,18864
4402.8,18865.3
4399.27,18867.3
4394.66,18870.2
4388.83,18873.9
4381.62,18878.6
4372.87,18884.5
4362.43,18891.5
4350.14,18899.9
4335.86,18909.6
4319.42,18920.9
4315.18,18923.8
4297.75,18935.7
4282.53,18946.1
4269.38,18955.1
4258.16,18962.6
4248.75,18968.9
4241,18974
4234.78,18977.9
4229.95,18980.9
4226.38,18982.9
4223.93,18984.1
4222.46,18984.5
4222.34,18984.5
4221.37,18984.4
4220.06,18983.7
4218.28,18982.6
4215.89,18980.7
4212.77,18978
4208.77,18974.4
4203.77,18969.6
4197.63,18963.7
4190.22,18956.5
4181.4,18947.8
4171.04,18937.5
4159.01,18925.6
4145.16,18911.8
4136.83,18903.4
4124.17,18890.8
4112.1,18878.6
4100.76,18867.1
4090.32,18856.5
4080.92,18846.9
4072.72,18838.4
4065.88,18831.3
4060.54,18825.6
4056.87,18821.6
4055.01,18819.4
4054.81,18819
4054.74,18815.1
4055.49,18812.4
4056.53,18810.7
4059.06,18806.8
4062.96,18801
4068.08,18793.4
4074.3,18784.2
4081.48,18773.6
4089.51,18761.8
4098.23,18749.1
4107.53,18735.5
4116.68,18722.2
4126.59,18707.7
4135.99,18693.9
4144.76,18680.9
4152.76,18669
4159.88,18658.3
4165.98,18649.1
4170.93,18641.4
4174.62,18635.6
4176.91,18631.8
4177.67,18630.2
4177.88,18629
4177.87,18627.6
4177.58,18625.6
4176.93,18622.9
4175.84,18619.4
4174.24,18614.7
4172.06,18608.8
4169.22,18601.3
4165.65,18592.1
4161.27,18581
4156.02,18567.8
4149.8,18552.2
4145.83,18542.3
4138.72,18524.5
4132.59,18509.2
4127.36,18496.1
4122.94,18485.2
4119.27,18476.1
4116.25,18468.7
4113.8,18462.9
4111.85,18458.4
4110.3,18455
4109.09,18452.6
4108.11,18450.9
4107.31,18449.8
4106.58,18449.1
4105.85,18448.6
4105.07,18448.1
4103.12,18447.5
4098.54,18446.4
4091.54,18444.8
4082.3,18442.9
4071.02,18440.6
4057.89,18438
4043.11,18435.2
4026.86,18432.1
4009.34,18428.8
3994.09,18425.9
3974.11,18422.2
3956.75,18419
3941.83,18416.2
3929.14,18413.8
3918.49,18411.7
3909.71,18410
3902.59,18408.5
3896.95,18407.3
3892.6,18406.2
3889.34,18405.3
3886.99,18404.6
3885.35,18403.8
3884.24,18403.2
3883.46,18402.5
3883.21,18402.2
3879.99,18398.5
3879.99,18170.2
3883.24,18166.4
3883.93,18165.7
3884.86,18165
3886.2,18164.3
3888.15,18163.6
3890.91,18162.8
3894.65,18161.8
3899.56,18160.7
3905.84,18159.4
3913.67,18157.8
3923.24,18155.9
3934.74,18153.7
3948.35,18151.2
3964.28,18148.2
3982.69,18144.8
3996.7,18142.2
4018.6,18138.1
4038.38,18134.3
4055.96,18131
4071.25,18128
4084.17,18125.4
4094.62,18123.2
4102.53,18121.5
4107.8,18120.2
4110.35,18119.4
4110.5,18119.3
4111.31,18118.8
4112.02,18118.4
4112.71,18117.8
4113.47,18116.9
4114.39,18115.4
4115.55,18113.3
4117.06,18110.2
4118.99,18106
4121.43,18100.5
4124.48,18093.6
4128.21,18085
4132.73,18074.5
4138.12,18062
4144.46,18047.2
4151.53,18030.7
4158.64,18014
4164.68,17999.9
4169.73,17987.9
4173.87,17978
4177.18,17969.8
4179.73,17963.3
4181.61,17958.3
4182.88,17954.4
4183.64,17951.6
4183.96,17949.6
4183.94,17948.4
4183.37,17946.8
4181.9,17943.9
4179.44,17939.7
4175.92,17934.1
4171.26,17926.8
4165.39,17917.9
4158.23,17907.2
4149.71,17894.6
4139.74,17880
4128.25,17863.2
4120.22,17851.5
4110.22,17836.9
4100.68,17823
4091.71,17809.9
4083.45,17797.8
4076.02,17786.9
4069.54,17777.4
4064.15,17769.5
4059.97,17763.3
4057.12,17759.1
4055.74,17757
4055.65,17756.8
4054.8,17753.3
4055,17750.1
4056.02,17748.5
4058.73,17745.2
4063.18,17740.3
4069.4,17733.6
4077.44,17725.3
4087.35,17715.1
4099.16,17703.1
4112.92,17689.2
4128.67,17673.4
4136.93,17665.2
4151.79,17650.3
4164.77,17637.4
4176.01,17626.2
4185.63,17616.7
4193.78,17608.7
4200.58,17602.1
4206.18,17596.7
4210.7,17592.5
4214.27,17589.4
4217.04,17587.1
4219.13,17585.5
4220.69,17584.6
4221.83,17584.2
4222.37,17584.1
4223.68,17584.5
4225.92,17585.5
4229.24,17587.4
4233.77,17590.1
4239.63,17593.8
4246.95,17598.6
4255.88,17604.5
4266.54,17611.7
4279.07,17620.2
4293.59,17630.1
4310.24,17641.5
4321.65,17649.3
4336.48,17659.5
4350.7,17669.2
4364.11,17678.3
4376.54,17686.8
4387.8,17694.4
4397.71,17701.1
4406.07,17706.6
4412.71,17711
4417.44,17714.1
4420.08,17715.7
4420.5,17715.9
4421.47,17716.3
4422.41,17716.5
4423.51,17716.6
4424.98,17716.5
4427.01,17716
4429.81,17715.2
4433.57,17713.9
4438.51,17712
4444.81,17709.5
4452.68,17706.4
4462.33,17702.5
4473.95,17697.7
4487.75,17692.1
4503.92,17685.5
4510,17683
4523.8,17677.3
4536.87,17671.8
4548.97,17666.7
4559.83,17662.1
4569.21,17658
4576.85,17654.6
4582.51,17652
4585.92,17650.3
4586.78,17649.7
4589.38,17646.8
4590.84,17644.3
4591.2,17642.5
4592.05,17638.2
4593.33,17631.5
4595.01,17622.7
4597.06,17611.9
4599.41,17599.3
4602.05,17585.3
4604.92,17569.9
4607.99,17553.5
4611.21,17536.2
4612.38,17529.9
4615.66,17512.4
4618.81,17495.6
4621.8,17479.8
4624.57,17465.3
4627.1,17452.2
4629.33,17440.7
4631.23,17431.1
4632.76,17423.5
4633.86,17418.3
4634.5,17415.6
4634.61,17415.3
4637.03,17412.5
4638.72,17411.3
4640.63,17411
4645.13,17410.7
4651.96,17410.5
4660.85,17410.3
4671.55,17410.2
4683.77,17410
4697.26,17409.9
4711.76,17409.8
4727,17409.8
4742.7,17409.8
4758.62,17409.7
Z" /> 
</g>
<g style="fill:#008484; fill-opacity:0.0; 
stroke:#008484; stroke-width:3.93701; stroke-opacity:1; 
stroke-linecap:round; stroke-linejoin:round;">
</g>
<g style="fill:#008484; fill-opacity:0.0; 
stroke:#008484; stroke-width:59.0551; stroke-opacity:1; 
stroke-linecap:round; stroke-linejoin:round;">
<text x="2634.53" y="2144.02"
textLength="864.173" font-size="524.934" lengthAdjust="spacingAndGlyphs"
text-anchor="middle" opacity="0">H1</text>
<path d="M2334 2125
L2334 1731
" />
<path d="M2334 1919
L2559 1919
" />
<path d="M2559 2125
L2559 1731
" />
<path d="M2953 2125
L2728 2125
" />
<path d="M2840 2125
L2840 1731
L2803 1787
L2765 1825
L2728 1844
" />
<text x="19534.5" y="9504.02"
textLength="1407.86" font-size="524.934" lengthAdjust="spacingAndGlyphs"
text-anchor="middle" opacity="0">JTAG</text>
<path d="M19075 9091
L19075 9372
L19056 9429
L19018 9466
L18962 9485
L18925 9485
" />
<path d="M19206 9091
L19431 9091
" />
<path d="M19318 9485
L19318 9091
" />
<path d="M19543 9372
L19731 9372
" />
<path d="M19506 9485
L19637 9091
L19768 9485
" />
<path d="M20106 9110
L20068 9091
L20012 9091
L19956 9110
L19918 9147
L19900 9185
L19881 9260
L19881 9316
L19900 9391
L19918 9429
L19956 9466
L20012 9485
L20050 9485
L20106 9466
L20125 9447
L20125 9316
L20050 9316
" />
</g>
<g style="fill:#008484; fill-opacity:0.0; 
stroke:#008484; stroke-width:78.7402; stroke-opacity:1; 
stroke-linecap:round; stroke-linejoin:round;">
<text x="17314.5" y="18192.4"
textLength="1510.97" font-size="787.402" lengthAdjust="spacingAndGlyphs"
text-anchor="middle" opacity="0">SPI</text>
<path d="M16709 18136
L16794 18164
L16934 18164
L16991 18136
L17019 18108
L17047 18051
L17047 17995
L17019 17939
L16991 17911
L16934 17883
L16822 17854
L16766 17826
L16738 17798
L16709 17742
L16709 17686
L16738 17630
L16766 17601
L16822 17573
L16963 17573
L17047 17601
" />
<path d="M17300 18164
L17300 17573
L17525 17573
L17581 17601
L17609 17630
L17637 17686
L17637 17770
L17609 17826
L17581 17854
L17525 17883
L17300 17883
" />
<path d="M17891 18164
L17891 17573
" />
</g>
<g style="fill:#008484; fill-opacity:0.0; 
stroke:#008484; stroke-width:59.0551; stroke-opacity:1; 
stroke-linecap:round; stroke-linejoin:round;">
<text x="18654.5" y="6294.02"
textLength="2333.33" font-size="524.934" lengthAdjust="spacingAndGlyphs"
text-anchor="middle" opacity="0">CORTEX</text>
<path d="M17857 6237
L17839 6256
L17782 6275
L17745 6275
L17689 6256
L17651 6219
L17632 6181
L17614 6106
L17614 6050
L17632 5975
L17651 5937
L17689 5900
L17745 5881
L17782 5881
L17839 5900
L17857 5919
" />
<path d="M18101 5881
L18176 5881
L18213 5900
L18251 5937
L18270 6012
L18270 6144
L18251 6219
L18213 6256
L18176 6275
L18101 6275
L18063 6256
L18026 6219
L18007 6144
L18007 6012
L18026 5937
L18063 5900
L18101 5881
" />
<path d="M18663 6275
L18532 6087
" />
<path d="M18438 6275
L18438 5881
L18588 5881
L18626 5900
L18645 5919
L18663 5956
L18663 6012
L18645 6050
L18626 6069
L18588 6087
L18438 6087
" />
<path d="M18776 5881
L19001 5881
" />
<path d="M18888 6275
L18888 5881
" />
<path d="M19132 6069
L19263 6069
" />
<path d="M19320 6275
L19132 6275
L19132 5881
L19320 5881
" />
<path d="M19451 5881
L19713 6275
" />
<path d="M19713 5881
L19451 6275
" />
</g>
<g style="fill:#008484; fill-opacity:0.0; 
stroke:#008484; stroke-width:78.7402; stroke-opacity:1; 
stroke-linecap:round; stroke-linejoin:round;">
<text x="9474.53" y="21672.4"
textLength="1061.02" font-size="787.402" lengthAdjust="spacingAndGlyphs"
text-anchor="middle" opacity="0">LA</text>
<path d="M9404 21644
L9123 21644
L9123 21053
" />
<path d="M9572 21475
L9854 21475
" />
<path d="M9516 21644
L9713 21053
L9910 21644
" />
</g>
<g style="fill:#008484; fill-opacity:0.0; 
stroke:#008484; stroke-width:59.0551; stroke-opacity:1; 
stroke-linecap:round; stroke-linejoin:round;">
<text x="9432.09" y="15149.2"
textLength="889.764" font-size="524.934" lengthAdjust="spacingAndGlyphs"
text-anchor="middle" opacity="0">U3</text>
<path d="M9132 14736
L9132 15055
L9150 15092
L9169 15111
L9207 15130
L9282 15130
L9319 15111
L9338 15092
L9357 15055
L9357 14736
" />
<path d="M9507 14736
L9750 14736
L9619 14886
L9675 14886
L9713 14905
L9732 14924
L9750 14961
L9750 15055
L9732 15092
L9713 15111
L9675 15130
L9563 15130
L9525 15111
L9507 15092
" />
<text x="6804.53" y="19484.6"
textLength="841.676" font-size="419.947" lengthAdjust="spacingAndGlyphs"
text-anchor="middle" opacity="0">I2C</text>
<path d="M6497 19469
L6497 19154
" />
<path d="M6632 19184
L6647 19169
L6677 19154
L6752 19154
L6782 19169
L6797 19184
L6812 19214
L6812 19244
L6797 19289
L6617 19469
L6812 19469
" />
<path d="M7126 19439
L7111 19454
L7066 19469
L7036 19469
L6992 19454
L6962 19424
L6947 19394
L6932 19334
L6932 19289
L6947 19229
L6962 19199
L6992 19169
L7036 19154
L7066 19154
L7111 19169
L7126 19184
" />
<text x="5498.23" y="3250.39"
textLength="1036.65" font-size="419.947" lengthAdjust="spacingAndGlyphs"
text-anchor="middle" opacity="0">GND</text>
<path d="M5258 2935
L5228 2920
L5183 2920
L5138 2935
L5108 2965
L5093 2995
L5078 3055
L5078 3100
L5093 3160
L5108 3190
L5138 3220
L5183 3235
L5213 3235
L5258 3220
L5273 3205
L5273 3100
L5213 3100
" />
<path d="M5408 3235
L5408 2920
L5588 3235
L5588 2920
" />
<path d="M5738 3235
L5738 2920
L5813 2920
L5858 2935
L5888 2965
L5903 2995
L5918 3055
L5918 3100
L5903 3160
L5888 3190
L5858 3220
L5813 3235
L5738 3235
" />
<g transform="rotate(-90 11853.3 6704.33)">
<text x="11853.3" y="6861.81"
textLength="1366.61" font-size="419.947" lengthAdjust="spacingAndGlyphs"
text-anchor="middle" opacity="0">MODE</text>
</g>
<path d="M11995 7274
L11680 7274
L11905 7169
L11680 7064
L11995 7064
" />
<path d="M11680 6854
L11680 6794
L11695 6764
L11725 6734
L11785 6719
L11890 6719
L11950 6734
L11980 6764
L11995 6794
L11995 6854
L11980 6884
L11950 6914
L11890 6929
L11785 6929
L11725 6914
L11695 6884
L11680 6854
" />
<path d="M11995 6584
L11680 6584
L11680 6509
L11695 6464
L11725 6434
L11755 6419
L11815 6404
L11860 6404
L11920 6419
L11950 6434
L11980 6464
L11995 6509
L11995 6584
" />
<path d="M11830 6269
L11830 6164
" />
<path d="M11995 6119
L11995 6269
L11680 6269
L11680 6119
" />
<text x="6894.53" y="4004.65"
textLength="1231.63" font-size="419.947" lengthAdjust="spacingAndGlyphs"
text-anchor="middle" opacity="0">UART</text>
<path d="M6392 3674
L6392 3929
L6407 3959
L6422 3974
L6452 3989
L6512 3989
L6542 3974
L6557 3959
L6572 3929
L6572 3674
" />
<path d="M6707 3899
L6857 3899
" />
<path d="M6677 3989
L6782 3674
L6887 3989
" />
<path d="M7171 3989
L7067 3839
" />
<path d="M6992 3989
L6992 3674
L7112 3674
L7141 3689
L7156 3704
L7171 3734
L7171 3779
L7156 3809
L7141 3824
L7112 3839
L6992 3839
" />
<path d="M7261 3674
L7441 3674
" />
<path d="M7351 3989
L7351 3674
" />
<text x="3024.53" y="6214.65"
textLength="1741.56" font-size="419.947" lengthAdjust="spacingAndGlyphs"
text-anchor="middle" opacity="0">TARGET</text>
<path d="M2222 5884
L2402 5884
" />
<path d="M2312 6199
L2312 5884
" />
<path d="M2492 6109
L2642 6109
" />
<path d="M2462 6199
L2567 5884
L2672 6199
" />
<path d="M2957 6199
L2852 6049
" />
<path d="M2777 6199
L2777 5884
L2897 5884
L2927 5899
L2942 5914
L2957 5944
L2957 5989
L2942 6019
L2927 6034
L2897 6049
L2777 6049
" />
<path d="M3256 5899
L3227 5884
L3182 5884
L3137 5899
L3107 5929
L3092 5959
L3077 6019
L3077 6064
L3092 6124
L3107 6154
L3137 6184
L3182 6199
L3212 6199
L3256 6184
L3271 6169
L3271 6064
L3212 6064
" />
<path d="M3406 6034
L3511 6034
" />
<path d="M3556 6199
L3406 6199
L3406 5884
L3556 5884
" />
<path d="M3646 5884
L3826 5884
" />
<path d="M3736 6199
L3736 5884
" />
<g >
</g>
</g>
<g style="fill:#000000; fill-opacity:0.0; 
stroke:#000000; stroke-width:59.0551; stroke-opacity:1; 
stroke-linecap:round; stroke-linejoin:round;">
</g>
<g style="fill:#C2C200; fill-opacity:0.0; 
stroke:#C2C200; stroke-width:59.0551; stroke-opacity:1; 
stroke-linecap:round; stroke-linejoin:round;">
</g>
<g style="fill:#C2C200; fill-opacity:0.0; 
stroke:#C2C200; stroke-width:19.685; stroke-opacity:1; 
stroke-linecap:round; stroke-linejoin:round;">
<path d="M2896.65 2747.64 A1771.65 1771.65 0.0 0 0 1125 4519.29" />
<path d="M20416.3 4519.29 A1771.65 1771.65 0.0 0 0 18644.7 2747.64" />
<path d="M18644.7 22039 A1771.65 1771.65 0.0 0 0 20416.3 20267.3" />
<path d="M1125 20267.3 A1771.65 1771.65 0.0 0 0 2896.65 22039" />
<path d="M1125 20267
L1125 4519
" />
<path d="M18644 22038
L2896 22038
" />
<path d="M20416 4519
L20416 20267
" />
<path d="M2896 2747
L18644 2747
" />
<g >
</g>
<g >
</g>
<g >
</g>
<g >
</g>
<g >
</g>
<g >
</g>
<g >
</g>
<g >
</g>
<g >
</g>
<g >
</g>
<g >
</g>
<g >
</g>
<g >
</g>
<g >
</g>
<g >
</g>
<g >
</g>
<g >
</g>
<g >
</g>
<g >
</g>
<g >
</g>
<g >
</g>
<g >
</g>
<g >
</g>
<g >
</g>
<g >
</g>
<g >
</g>
<g >
</g>
<g >
</g>
<g >
</g>
<g >
</g>
<g >
</g>
<g >
</g>
<g >
</g>
<g >
</g>
<g >
</g>
<g >
</g>
<g >
</g>
<g >
</g>
<g >
</g>
<g >
</g>
<g >
</g>
<g >
</g>
<g >
</g>
<g >
</g>
<g >
</g>
<g >
</g>
<g >
</g>
<g >
</g>
<g >
</g>
<g >
</g>
<g >
</g>
<g >
</g>
<g >
</g>
<g >
</g>
<g >
</g>
<g >
</g>
<g >
</g>
<g >
</g>
<g >
</g>
<g >
</g>
<g >
</g>
<g >
</g>
<g >
</g>
<g >
</g>
<g >
</g>
<g >
</g>
<g >
</g>
<g >
</g>
<g >
</g>
<g >
</g>
<g >
</g>
<g >
</g>
<g >
</g>
<g >
</g>
<g >
</g>
<g >
</g>
<g >
</g>
<g >
</g>
<g >
</g>
<g >
</g>
<g >
</g>
<g >
</g>
<g >
</g>
<g >
</g>
<g >
</g>
<g >
</g>
<g >
</g>
<g >
</g>
<g >
</g>
<g >
</g>
<g >
</g>
<g >
</g>
<g >
</g>
<g >
</g>
<g >
</g>
<g >
</g>
<g >
</g>
</g> 
</svg>
